<svg width="25" height="24" viewBox="0 0 25 24" fill="none" xmlns="http://www.w3.org/2000/svg">
<g clip-path="url(#clip0_23_1852)">
<path d="M12.4531 24C9.82812 24 8.89062 23.4844 8.89062 22.3594V20.4844C8.14062 20.2031 7.48438 19.7812 6.875 19.3594L5.28125 20.25C5.04688 20.3906 4.8125 20.4375 4.57812 20.4375C2.84375 20.4375 0.96875 16.125 0.96875 15.375C0.96875 14.8594 1.25 14.3438 1.71875 14.1094L3.3125 13.1719C3.3125 12.7969 3.26562 12.375 3.26562 12C3.26562 11.5781 3.3125 11.2031 3.35938 10.8281L1.76562 9.9375C1.29688 9.70312 1.01562 9.1875 1.01562 8.67188C1.01562 8.10938 2.79688 3.5625 4.57812 3.5625C4.85938 3.5625 5.09375 3.65625 5.32812 3.79688L6.92188 4.6875C7.53125 4.26562 8.1875 3.84375 8.89062 3.5625V1.6875C8.89062 0.234375 10.5781 0 12.5 0C14.3281 0 16.0156 0.234375 16.0156 1.6875V3.5625C16.7188 3.84375 17.375 4.21875 17.9844 4.6875L19.5781 3.79688C19.8125 3.65625 20.0469 3.60938 20.3281 3.60938C22.0156 3.60938 23.8906 7.92188 23.8906 8.67188C23.8906 9.1875 23.6094 9.70312 23.1406 9.9375L21.5469 10.875C21.5938 11.25 21.6406 11.625 21.6406 12C21.6406 12.375 21.5938 12.7969 21.5469 13.1719L23.1406 14.1094C23.6094 14.3438 23.8906 14.8594 23.8906 15.375C23.8906 15.9375 22.1094 20.4375 20.3281 20.4375C20.0469 20.4375 19.8125 20.3906 19.5781 20.25L17.9844 19.3594C17.375 19.7812 16.7188 20.2031 16.0156 20.4844V22.3594C16.0625 23.4844 15.125 24 12.4531 24ZM7.0625 17.5312C8.75 18.9844 9.54688 19.125 10.3906 19.4531V22.3594C11.0938 22.4531 11.75 22.5 12.4531 22.5C13.1562 22.5 13.8594 22.4531 14.5625 22.3125L14.5156 19.4531C15.3125 19.1719 16.2031 18.9375 17.8438 17.5312L20.375 18.9844C21.2656 17.9531 21.9688 16.7344 22.3906 15.375L19.9531 13.9688C20.0469 13.2656 20.1406 12.75 20.1406 12.0938C20.1406 11.625 20.0938 11.0156 19.9531 10.0781L22.4375 8.67188C21.9688 7.35938 21.2656 6.14062 20.3281 5.0625L17.8438 6.51562C16.2031 5.0625 15.4062 4.92188 14.5156 4.59375V1.6875C13.8594 1.59375 13.2031 1.54688 12.5 1.54688C11.7969 1.54688 11.0938 1.59375 10.3438 1.73438L10.3906 4.59375C9.64062 4.875 8.75 5.0625 7.0625 6.51562L4.57812 5.0625C3.6875 6.14062 2.98438 7.35938 2.51562 8.71875L5 10.0781C4.90625 10.7812 4.8125 11.2969 4.8125 11.9062C4.8125 12.4219 4.85938 13.0312 5 13.9219L2.51562 15.375C2.98438 16.6406 3.6875 17.8594 4.625 18.9375L7.0625 17.5312ZM12.5 16.5C10.0156 16.5 8 14.4844 8 12C8 9.51562 10.0156 7.5 12.5 7.5C14.9375 7.5 17 9.51562 17 12C17 14.4844 14.9375 16.5 12.5 16.5ZM12.5 9C10.8125 9 9.5 10.3125 9.5 12C9.5 13.6406 10.8125 15 12.5 15C14.1406 15 15.5 13.6406 15.5 12C15.5 10.3125 14.1406 9 12.5 9Z" fill="#D6D6D6"/>
</g>
<defs>
<clipPath id="clip0_23_1852">
<rect width="24" height="24" fill="white" transform="translate(0.5)"/>
</clipPath>
</defs>
</svg>
