<svg width="27" height="27" viewBox="0 0 27 27" fill="none" xmlns="http://www.w3.org/2000/svg">
<path d="M13.5 5.28748C8.43752 5.28748 4.27502 9.44998 4.27502 14.5125C4.27502 19.575 8.43752 23.7375 13.5 23.7375C18.5625 23.7375 22.725 19.575 22.725 14.5125C22.725 9.44998 18.5625 5.28748 13.5 5.28748ZM14.4 20.925H12.6V19.125H14.4V20.925ZM16.3125 13.8375L15.525 14.625C14.7375 15.3 14.4 15.8625 14.4 17.2125H12.6V16.7625C12.6 15.75 12.9375 14.85 13.725 14.175L14.85 12.9375C15.1875 12.7125 15.4125 12.15 15.4125 11.7C15.4125 10.6875 14.625 9.89998 13.6125 9.89998C12.6 9.89998 11.8125 10.6875 11.8125 11.7H9.78752C9.78752 9.67498 11.475 7.98748 13.5 7.98748C15.525 7.98748 17.2125 9.67498 17.2125 11.7C17.2125 12.6 16.7625 13.275 16.3125 13.8375Z" fill="black"/>
</svg>
