<svg width="21" height="21" viewBox="0 0 21 21" fill="none" xmlns="http://www.w3.org/2000/svg">
<path d="M5.50004 18.8333C5.04171 18.8333 4.64935 18.6701 4.32296 18.3438C3.99657 18.0174 3.83337 17.625 3.83337 17.1667V8.83334C3.83337 8.37501 3.99657 7.98265 4.32296 7.65626C4.64935 7.32987 5.04171 7.16668 5.50004 7.16668H6.33337V5.50001C6.33337 4.34723 6.73962 3.36459 7.55212 2.55209C8.36462 1.73959 9.34726 1.33334 10.5 1.33334C11.6528 1.33334 12.6355 1.73959 13.448 2.55209C14.2605 3.36459 14.6667 4.34723 14.6667 5.50001V7.16668H15.5C15.9584 7.16668 16.3507 7.32987 16.6771 7.65626C17.0035 7.98265 17.1667 8.37501 17.1667 8.83334V17.1667C17.1667 17.625 17.0035 18.0174 16.6771 18.3438C16.3507 18.6701 15.9584 18.8333 15.5 18.8333H5.50004ZM5.50004 17.1667H15.5V8.83334H5.50004V17.1667ZM10.5 14.6667C10.9584 14.6667 11.3507 14.5035 11.6771 14.1771C12.0035 13.8507 12.1667 13.4583 12.1667 13C12.1667 12.5417 12.0035 12.1493 11.6771 11.8229C11.3507 11.4965 10.9584 11.3333 10.5 11.3333C10.0417 11.3333 9.64935 11.4965 9.32296 11.8229C8.99657 12.1493 8.83337 12.5417 8.83337 13C8.83337 13.4583 8.99657 13.8507 9.32296 14.1771C9.64935 14.5035 10.0417 14.6667 10.5 14.6667ZM8.00004 7.16668H13V5.50001C13 4.80557 12.757 4.21529 12.2709 3.72918C11.7848 3.24307 11.1945 3.00001 10.5 3.00001C9.8056 3.00001 9.21532 3.24307 8.72921 3.72918C8.2431 4.21529 8.00004 4.80557 8.00004 5.50001V7.16668Z" fill="#EFEFEF"/>
</svg>
