<svg width="22" height="22" viewBox="0 0 22 22" fill="none" xmlns="http://www.w3.org/2000/svg">
<path d="M20.9609 2.44532L18.4609 18.6562C18.4219 19.0469 18.1875 19.3984 17.8359 19.5938C17.6406 19.6719 17.4453 19.75 17.2109 19.75C17.0547 19.75 16.8984 19.7109 16.7422 19.6328L11.9766 17.6406L9.98438 20.6094C9.82812 20.8828 9.55469 21 9.28125 21C8.85156 21 8.5 20.6484 8.5 20.2188V16.4688C8.5 16.1562 8.57812 15.8828 8.73438 15.6875L17.25 4.75001L5.76562 15.1016L1.74219 13.4219C1.3125 13.2266 1 12.8359 1 12.3281C0.960941 11.7812 1.19531 11.3906 1.625 11.1562L19.125 1.19532C19.5156 0.960945 20.0625 0.960945 20.4531 1.23438C20.8438 1.50782 21.0391 1.97657 20.9609 2.44532Z" fill="#0CAD3D"/>
</svg>
