<svg width="24" height="25" viewBox="0 0 24 25" fill="none" xmlns="http://www.w3.org/2000/svg">
<g clip-path="url(#clip0_57_2536)">
<g clip-path="url(#clip1_57_2536)">
<g clip-path="url(#clip2_57_2536)">
<path d="M19.95 22C17.8667 22 15.8083 21.5458 13.775 20.6375C11.7417 19.7292 9.89167 18.4417 8.225 16.775C6.55833 15.1083 5.27083 13.2583 4.3625 11.225C3.45417 9.19167 3 7.13333 3 5.05C3 4.75 3.1 4.5 3.3 4.3C3.5 4.1 3.75 4 4.05 4H8.1C8.33333 4 8.54167 4.07917 8.725 4.2375C8.90833 4.39583 9.01667 4.58333 9.05 4.8L9.7 8.3C9.73333 8.56667 9.725 8.79167 9.675 8.975C9.625 9.15833 9.53333 9.31667 9.4 9.45L6.975 11.9C7.30833 12.5167 7.70417 13.1125 8.1625 13.6875C8.62083 14.2625 9.125 14.8167 9.675 15.35C10.1917 15.8667 10.7333 16.3458 11.3 16.7875C11.8667 17.2292 12.4667 17.6333 13.1 18L15.45 15.65C15.6 15.5 15.7958 15.3875 16.0375 15.3125C16.2792 15.2375 16.5167 15.2167 16.75 15.25L20.2 15.95C20.4333 16.0167 20.625 16.1375 20.775 16.3125C20.925 16.4875 21 16.6833 21 16.9V20.95C21 21.25 20.9 21.5 20.7 21.7C20.5 21.9 20.25 22 19.95 22ZM6.025 10L7.675 8.35L7.25 6H5.025C5.10833 6.68333 5.225 7.35833 5.375 8.025C5.525 8.69167 5.74167 9.35 6.025 10ZM14.975 18.95C15.625 19.2333 16.2875 19.4583 16.9625 19.625C17.6375 19.7917 18.3167 19.9 19 19.95V17.75L16.65 17.275L14.975 18.95Z" fill="black"/>
</g>
</g>
</g>
<defs>
<clipPath id="clip0_57_2536">
<rect width="24" height="24" fill="white" transform="translate(0 0.5)"/>
</clipPath>
<clipPath id="clip1_57_2536">
<rect width="24" height="24" fill="white" transform="translate(0 0.5)"/>
</clipPath>
<clipPath id="clip2_57_2536">
<rect width="24" height="24" fill="white" transform="translate(0 0.5)"/>
</clipPath>
</defs>
</svg>
