<svg width="27" height="27" viewBox="0 0 27 27" fill="none" xmlns="http://www.w3.org/2000/svg">
<path fill-rule="evenodd" clip-rule="evenodd" d="M5.8125 4.21875C4.15565 4.21875 2.8125 5.5619 2.8125 7.21875V19.7812C2.8125 21.4381 4.15565 22.7812 5.8125 22.7812H21.1875C22.8444 22.7812 24.1875 21.4381 24.1875 19.7812V9.84375L26.714 5.95686C27.2005 5.20846 26.6634 4.21875 25.7707 4.21875H5.8125ZM16.8381 14.615H14.6153V16.838C14.6153 17.3249 14.3287 17.7947 13.8643 17.9424C13.094 18.1869 12.3851 17.619 12.3851 16.8851V14.615H10.1619C9.67443 14.615 9.20464 14.3278 9.05736 13.8629C8.81339 13.0929 9.38185 12.385 10.1153 12.385H12.3851V10.1625C12.3851 9.67508 12.6719 9.20534 13.1363 9.05759C13.906 8.81315 14.6153 9.38106 14.6153 10.1149V12.385H16.8852C17.6182 12.385 18.1866 13.0929 17.9426 13.8629C17.7958 14.3278 17.3256 14.615 16.8381 14.615Z" fill="#D6BEA7"/>
</svg>
