<svg width="701" height="525" viewBox="0 0 701 525" fill="none" xmlns="http://www.w3.org/2000/svg">
<rect width="701" height="525" fill="url(#paint0_radial_64_330)" fill-opacity="0.28"/>
<path d="M260.644 399.844C270.774 391.55 272.085 377.613 270.65 365.301C270.408 363.244 270.46 361.055 269.318 359.328C268.176 357.6 265.76 356.553 263.96 357.578C262.496 358.427 261.939 360.265 261.193 361.809C260.189 363.884 258.621 365.635 256.669 366.86C255.395 367.651 253.785 368.2 252.409 367.592C250.527 366.758 250.117 364.32 249.964 362.27C249.671 358.449 249.383 354.626 249.1 350.8C249.052 348.739 248.671 346.7 247.973 344.761C247.167 342.872 245.594 341.181 243.581 340.801C241.568 340.42 239.189 341.738 238.954 343.78C238.945 344.636 238.994 345.492 239.101 346.342C239.142 346.767 239.059 347.195 238.862 347.573C238.664 347.951 238.361 348.264 237.988 348.472C237.183 348.78 236.305 348.267 235.631 347.74C233.318 345.852 231.642 343.304 230.068 340.764C228.494 338.224 226.95 335.64 224.819 333.517C222.689 331.395 219.849 329.857 216.863 329.931C213.876 330.004 210.853 332.09 210.341 335.055C209.828 338.019 211.768 340.801 213.818 342.982C216.87 346.205 220.371 348.971 224.212 351.195C224.948 351.523 225.561 352.077 225.961 352.776C226.525 354.109 225.325 355.573 224 356.136C222.492 356.773 220.793 356.751 219.19 357.073C217.587 357.395 215.889 358.244 215.399 359.804C214.725 362 216.68 364.02 218.539 365.316C222.286 367.91 226.447 369.848 230.844 371.047C232.418 371.472 234.065 371.823 235.382 372.782C236.7 373.741 237.578 375.52 236.971 377.028C236.363 378.535 234.475 379.15 232.85 378.989C231.224 378.828 229.724 378.089 228.15 377.65C225.222 376.823 221.562 377.32 219.908 379.904C219.419 380.785 219.143 381.769 219.104 382.776C219.064 383.783 219.262 384.785 219.681 385.702C220.533 387.525 221.743 389.158 223.238 390.504C228.221 395.507 234.438 399.104 241.26 400.927C248.068 402.648 254.253 402.757 260.644 399.844Z" fill="#FF6300"/>
<path d="M261.529 408.987C260.477 403.309 258.876 397.746 256.749 392.378C254.121 385.82 251.112 379.421 247.738 373.214L245.096 368.324C244.232 366.714 243.376 365.118 242.439 363.61C240.643 360.719 238.688 357.931 236.583 355.258C234.584 352.688 232.586 350.317 230.727 348.121C228.867 345.925 227.067 343.912 225.332 342.14C222.632 339.34 219.717 336.755 216.614 334.41C215.516 333.576 214.637 332.946 214.044 332.551L213.364 332.083C213.286 332.029 213.205 331.981 213.122 331.936C213.122 331.936 213.195 332.002 213.342 332.112L214.008 332.602C214.593 333.027 215.472 333.656 216.541 334.506C219.609 336.881 222.494 339.485 225.171 342.294C226.876 344.066 228.662 346.086 230.536 348.289C232.41 350.492 234.387 352.864 236.392 355.433C238.497 358.102 240.452 360.886 242.248 363.771C243.178 365.272 244.027 366.86 244.891 368.47L247.511 373.367C250.857 379.566 253.853 385.947 256.486 392.48C258.615 397.829 260.233 403.369 261.317 409.023" fill="#E0E0E0"/>
<path d="M242.38 363.573C242.449 363.28 242.488 362.981 242.497 362.68C242.556 362.109 242.614 361.268 242.673 360.235C242.797 358.171 242.87 355.316 242.944 352.183C243.017 349.05 243.134 346.181 243.302 344.131C243.376 343.099 243.456 342.272 243.515 341.694C243.557 341.398 243.577 341.1 243.573 340.801C243.483 341.087 243.421 341.381 243.39 341.679C243.295 342.25 243.185 343.085 243.083 344.109C242.856 346.174 242.702 349.028 242.629 352.161C242.556 355.294 242.504 358.113 242.461 360.213C242.424 361.202 242.402 362.029 242.38 362.658C242.351 362.963 242.351 363.269 242.38 363.573Z" fill="#E0E0E0"/>
<path d="M215.274 360.85H215.552H216.35C217.038 360.85 218.034 360.85 219.278 360.887C221.745 360.938 225.134 361.128 228.904 361.516C232.674 361.904 236.026 362.402 238.457 362.834C239.672 363.046 240.653 363.237 241.333 363.368L242.109 363.522C242.292 363.522 242.387 363.566 242.387 363.522C242.305 363.478 242.216 363.449 242.124 363.434L241.355 363.222C240.689 363.054 239.708 362.827 238.493 362.592C236.07 362.102 232.688 361.568 228.933 361.172C225.178 360.777 221.76 360.631 219.278 360.638C218.041 360.638 217.082 360.638 216.35 360.704L215.56 360.755C215.46 360.772 215.364 360.804 215.274 360.85Z" fill="#E0E0E0"/>
<path d="M256.413 391.909C256.47 391.798 256.519 391.683 256.559 391.565C256.661 391.309 256.779 390.979 256.932 390.577C257.254 389.713 257.664 388.447 258.206 386.917C259.238 383.791 260.534 379.428 261.91 374.59C263.286 369.751 264.538 365.389 265.519 362.248C266.009 360.711 266.404 359.452 266.697 358.53C266.829 358.12 266.931 357.798 267.012 357.52C267.057 357.404 267.089 357.284 267.107 357.161C267.042 357.266 266.99 357.379 266.953 357.498C266.858 357.761 266.734 358.091 266.58 358.493C266.258 359.357 265.848 360.616 265.314 362.153C264.274 365.279 262.979 369.642 261.61 374.48C260.241 379.319 259.004 383.696 257.994 386.822C257.511 388.359 257.108 389.618 256.823 390.533C256.691 390.95 256.588 391.265 256.5 391.55C256.46 391.667 256.43 391.787 256.413 391.909Z" fill="#E0E0E0"/>
<path d="M220.003 383.542C220.116 383.597 220.237 383.634 220.362 383.652L221.423 383.901L225.332 384.794C228.626 385.526 233.164 386.646 238.178 387.876C243.193 389.105 247.738 390.174 251.047 390.877C252.701 391.228 254.041 391.499 254.971 391.668L256.039 391.858C256.164 391.886 256.292 391.904 256.42 391.909C256.304 391.856 256.18 391.819 256.054 391.799L254.993 391.55L251.091 390.657C247.797 389.925 243.259 388.805 238.252 387.576C233.245 386.346 228.692 385.277 225.383 384.574C223.729 384.223 222.389 383.952 221.46 383.784L220.384 383.586C220.258 383.561 220.131 383.546 220.003 383.542Z" fill="#E0E0E0"/>
<path d="M356.806 190.678L303.882 206.596L314.612 242.269L367.536 226.351L356.806 190.678Z" fill="#FF906C"/>
<path d="M367.545 226.316C367.545 226.316 367.464 226.089 367.332 225.665C367.201 225.24 367.003 224.596 366.747 223.776C366.242 222.122 365.495 219.699 364.551 216.61C362.662 210.41 359.961 201.516 356.667 190.69L356.858 190.792L303.949 206.772L304.08 206.53L314.797 242.208L314.577 242.091L352.7 230.708L363.614 227.48L366.542 226.623L367.274 226.404L367.537 226.338L367.303 226.418L366.571 226.653L363.702 227.531L352.853 230.847L314.672 242.42L314.504 242.471L314.453 242.303C311.181 231.433 307.535 219.347 303.707 206.633L303.656 206.45L303.831 206.398L356.762 190.514L356.909 190.47L356.953 190.616C360.195 201.501 362.853 210.439 364.712 216.668C365.62 219.757 366.337 222.173 366.82 223.835C367.062 224.64 367.237 225.262 367.369 225.701C367.501 226.14 367.545 226.316 367.545 226.316Z" fill="#E0E0E0"/>
<path d="M356.814 190.668C356.794 190.723 356.77 190.777 356.741 190.829L356.492 191.282C356.25 191.7 355.921 192.278 355.511 193.01L351.814 199.356L339.414 220.387L339.326 220.526L339.18 220.467L337.562 219.845L313.721 210.541L306.511 207.687L304.564 206.889L304.058 206.676C303.998 206.656 303.941 206.627 303.89 206.589C303.954 206.594 304.016 206.611 304.073 206.64L304.586 206.816L306.569 207.548L313.816 210.293L337.694 219.486L339.319 220.116L339.085 220.196C343.989 211.961 348.396 204.583 351.587 199.217L355.386 192.937C355.826 192.205 356.177 191.656 356.426 191.239L356.711 190.807C356.77 190.712 356.806 190.66 356.814 190.668Z" fill="#E0E0E0"/>
<path d="M510.812 333.188C510.812 333.188 507.379 329.792 500.688 338.275C497.181 342.57 493.96 347.091 491.048 351.81C491.048 351.81 489.379 353.538 488.281 351.971C487.183 350.405 486.048 346.364 483.603 346.569C481.158 346.774 479.753 349.292 479.424 353.311C479.094 357.329 478.062 366.121 477.96 366.911C477.857 367.702 477.228 368.734 476.283 367.79C475.339 366.845 470.588 358.808 466.892 361.282C463.195 363.756 464.132 375.132 464.213 376.369C464.293 377.606 463.957 378.074 463.342 378.25C462.727 378.426 461.373 375.571 459.916 373.338C458.459 371.106 456.388 368.756 454.382 370.374C452.376 371.991 450.246 379.948 455.312 394.566L458.1 401.154L465.237 402.172C480.661 403.409 487.834 399.361 488.896 397.011C489.957 394.661 487.176 393.241 484.643 392.392C482.11 391.543 479.006 390.928 479.028 390.306C479.05 389.684 479.409 389.23 480.631 388.996C481.854 388.761 493.075 386.8 494.539 382.62C496.003 378.44 487.036 375.82 485.887 375.161C484.738 374.502 485.587 373.602 486.319 373.316C487.051 373.031 495.308 369.817 499.122 368.5C502.936 367.182 505.036 365.264 504.604 362.761C504.173 360.257 499.993 360.265 498.199 359.584C496.406 358.903 497.665 356.868 497.665 356.868C501.521 352.877 505.109 348.634 508.404 344.168C514.94 335.56 510.68 333.049 510.68 333.049" fill="#FF6300"/>
<path d="M504.78 340.742C504.747 340.807 504.708 340.868 504.663 340.925L504.29 341.452C503.938 341.921 503.448 342.587 502.826 343.436C501.545 345.156 499.678 347.63 497.35 350.675C492.702 356.766 486.202 365.125 478.984 374.319L460.523 397.897L454.953 405.063L453.43 407.003L453.028 407.501C452.933 407.61 452.889 407.669 452.881 407.662C452.914 407.597 452.953 407.536 452.998 407.479L453.372 406.959L454.836 404.968C456.109 403.248 457.983 400.774 460.304 397.728C464.952 391.638 471.46 383.279 478.684 374.085C485.909 364.891 492.402 356.561 497.138 350.507C499.473 347.499 501.376 345.061 502.709 343.348C503.353 342.521 503.865 341.884 504.224 341.401L504.634 340.903C504.722 340.793 504.773 340.735 504.78 340.742Z" fill="#E0E0E0"/>
<path d="M484.965 352.286C485.124 352.914 485.215 353.557 485.236 354.204C485.346 355.39 485.441 357.037 485.507 358.859C485.573 360.682 485.602 362.19 485.639 363.515C485.692 364.158 485.692 364.804 485.639 365.447C485.48 364.82 485.392 364.176 485.375 363.529C485.28 362.336 485.199 360.689 485.133 358.874C485.068 357.059 485.024 355.543 484.972 354.218C484.914 353.576 484.912 352.929 484.965 352.286Z" fill="#E0E0E0"/>
<path d="M486.253 365.703C488.758 365.299 491.282 365.023 493.815 364.876C497.995 364.532 501.398 364.335 501.406 364.437C498.901 364.837 496.377 365.111 493.844 365.257C489.665 365.608 486.268 365.806 486.253 365.703Z" fill="#E0E0E0"/>
<path d="M474.109 379.816C474.766 379.867 475.417 379.972 476.056 380.131C477.257 380.358 478.904 380.673 480.734 380.966C482.564 381.258 484.226 381.478 485.433 381.632C486.092 381.684 486.746 381.79 487.388 381.947C486.729 382.003 486.067 381.988 485.411 381.903C484.189 381.815 482.483 381.639 480.675 381.339C478.867 381.039 477.184 380.687 475.998 380.395C475.35 380.27 474.716 380.076 474.109 379.816Z" fill="#E0E0E0"/>
<path d="M470.274 367.943C470.578 368.474 470.823 369.036 471.006 369.62C471.394 370.681 471.913 372.145 472.47 373.77C473.026 375.395 473.494 376.874 473.824 377.957C474.03 378.53 474.182 379.12 474.278 379.721C473.969 379.19 473.724 378.625 473.546 378.038C473.15 376.984 472.638 375.52 472.082 373.895C471.525 372.269 471.057 370.784 470.728 369.707C470.513 369.138 470.36 368.546 470.274 367.943Z" fill="#E0E0E0"/>
<path d="M457.969 379.04C458.321 379.736 458.62 380.458 458.862 381.2C459.367 382.554 460.04 384.428 460.765 386.507C461.49 388.586 462.119 390.474 462.566 391.843C462.841 392.575 463.054 393.33 463.203 394.098C462.844 393.392 462.545 392.657 462.31 391.902C461.804 390.555 461.131 388.681 460.406 386.602C459.682 384.523 459.045 382.635 458.606 381.258C458.332 380.538 458.118 379.796 457.969 379.04Z" fill="#E0E0E0"/>
<path d="M463.181 393.702C464.014 393.75 464.844 393.858 465.662 394.025C467.185 394.266 469.322 394.595 471.628 394.903C473.934 395.21 476.079 395.445 477.608 395.635C478.442 395.69 479.271 395.8 480.09 395.964C479.255 396.015 478.418 395.995 477.586 395.906C476.042 395.803 473.926 395.613 471.577 395.298C469.227 394.983 467.126 394.617 465.611 394.317C464.785 394.179 463.973 393.973 463.181 393.702Z" fill="#E0E0E0"/>
<path d="M478.501 261.168L476.767 317.938L518.252 319.205L519.986 262.436L478.501 261.168Z" fill="#FFB096"/>
<path d="M470.864 268.715L469.129 325.484L510.614 326.752L512.349 269.982L470.864 268.715Z" fill="#FF906C"/>
<path d="M510.607 326.739C510.602 326.646 510.602 326.554 510.607 326.461C510.607 326.271 510.607 326.007 510.607 325.663C510.607 324.931 510.643 323.906 510.68 322.559C510.753 319.844 510.856 315.898 510.987 310.899C511.273 300.907 511.676 286.743 512.151 269.972L512.32 270.148L470.837 268.896L471.035 268.713C470.369 289.941 469.761 309.552 469.263 325.48L469.11 325.319L499.239 326.322L507.62 326.615L509.816 326.703L510.585 326.739H509.853L507.657 326.688L499.312 326.476L469.088 325.634H468.934V325.48C469.41 309.544 469.995 289.912 470.632 268.706V268.516H470.83L512.305 269.804H512.481V269.98C511.932 286.816 511.471 301.002 511.141 311.016C510.973 315.993 510.834 319.931 510.746 322.633C510.695 323.965 510.658 324.99 510.629 325.7C510.629 326.036 510.629 326.3 510.592 326.483C510.556 326.666 510.607 326.739 510.607 326.739Z" fill="#E0E0E0"/>
<path d="M496.172 281.846C496.172 281.955 491.656 281.897 486.092 281.728C480.529 281.56 476.013 281.333 476.013 281.231C476.013 281.128 480.536 281.179 486.1 281.348C491.663 281.516 496.172 281.743 496.172 281.846Z" fill="#E0E0E0"/>
<path d="M506.888 287.116C506.888 287.218 499.934 287.116 491.355 286.83C482.776 286.545 475.822 286.267 475.83 286.164C475.837 286.062 482.784 286.164 491.37 286.45C499.956 286.735 506.896 287.006 506.888 287.116Z" fill="#E0E0E0"/>
<path d="M506.735 292.262C506.735 292.364 499.773 292.262 491.194 291.976C482.615 291.691 475.668 291.413 475.668 291.31C475.668 291.208 482.63 291.31 491.209 291.596C499.788 291.881 506.735 292.152 506.735 292.262Z" fill="#E0E0E0"/>
<path d="M506.574 297.408C506.574 297.51 499.62 297.408 491.041 297.122C482.462 296.837 475.515 296.559 475.515 296.456C475.515 296.354 482.476 296.456 491.055 296.742C499.634 297.027 506.581 297.32 506.574 297.408Z" fill="#E0E0E0"/>
<path d="M506.42 302.554C506.42 302.656 499.459 302.554 490.887 302.268C482.315 301.983 475.354 301.705 475.354 301.602C475.354 301.5 482.315 301.602 490.894 301.888C499.473 302.173 506.42 302.444 506.42 302.554Z" fill="#E0E0E0"/>
<path d="M506.266 307.7C506.266 307.802 499.305 307.7 490.726 307.414C482.147 307.129 475.2 306.851 475.2 306.748C475.2 306.646 482.162 306.748 490.741 307.034C499.32 307.319 506.266 307.568 506.266 307.7Z" fill="#E0E0E0"/>
<path d="M506.105 312.846C506.105 312.948 499.144 312.846 490.572 312.56C482 312.275 475.039 311.997 475.046 311.894C475.054 311.792 482 311.894 490.579 312.18C499.158 312.465 506.112 312.736 506.105 312.846Z" fill="#E0E0E0"/>
<path d="M491.582 317.552C491.582 317.655 487.842 317.626 483.23 317.487C478.618 317.348 474.885 317.143 474.885 317.04C474.885 316.938 478.626 316.967 483.237 317.106C487.849 317.245 491.582 317.443 491.582 317.552Z" fill="#E0E0E0"/>
<path d="M387.729 216.776L374.748 249.378L415.525 265.614L428.506 233.011L387.729 216.776Z" fill="#FFB096"/>
<path d="M428.498 233.014L428.301 232.941L427.73 232.721L425.534 231.843L417.167 228.512L387.697 216.8L387.785 216.763L374.814 249.359L374.77 249.257L415.542 265.507H415.462C419.385 255.684 422.643 247.544 424.912 241.856C426.054 239.016 426.947 236.784 427.554 235.268L428.286 233.534L428.528 232.933L428.301 233.526C428.147 233.921 427.92 234.5 427.62 235.254C427.02 236.776 426.156 239.009 425.014 241.842C422.752 247.537 419.51 255.698 415.608 265.544V265.602H415.549L374.718 249.447H374.645V249.374C379.337 237.603 383.766 226.477 387.631 216.778V216.712H387.689L417.233 228.512L425.556 231.85L427.752 232.728L428.315 232.955L428.498 233.014Z" fill="#FFB096"/>
<path d="M388.287 219.424L376.941 247.919L414.855 263.015L426.201 234.52L388.287 219.424Z" fill="#FF906C"/>
<path d="M377.09 248.005L397.388 235.561L401.18 249.908L409.1 246.204L415.008 263.099L377.09 248.005Z" fill="#E0E0E0"/>
<path d="M409.935 238.028C409.7 238.619 409.295 239.126 408.771 239.487C408.248 239.847 407.629 240.044 406.993 240.053C406.357 240.062 405.733 239.881 405.2 239.535C404.667 239.189 404.248 238.693 403.997 238.109C403.746 237.525 403.674 236.879 403.79 236.254C403.906 235.629 404.204 235.052 404.648 234.597C405.092 234.142 405.66 233.828 406.282 233.696C406.904 233.564 407.551 233.62 408.142 233.856C408.534 234.011 408.891 234.243 409.194 234.537C409.496 234.831 409.738 235.182 409.904 235.57C410.071 235.957 410.16 236.374 410.165 236.796C410.17 237.218 410.092 237.636 409.935 238.028Z" fill="#E0E0E0"/>
<path d="M282.757 283.31C283.033 283.423 283.331 283.471 283.628 283.449C283.985 283.408 284.316 283.245 284.565 282.987C284.855 282.587 285.112 282.163 285.334 281.721L290.085 273.435L291.666 270.697L292.508 269.233C292.654 269 292.781 268.755 292.888 268.501C292.965 268.248 292.965 267.978 292.888 267.725C292.822 267.465 292.676 267.232 292.471 267.059C292.236 266.893 291.992 266.742 291.739 266.605L290.107 265.698L286.71 263.794L271.587 255.311C271.289 255.151 270.942 255.108 270.613 255.189C270.285 255.27 269.998 255.47 269.808 255.75L268.674 257.697C267.942 258.985 267.21 260.266 266.478 261.518L262.232 268.772C262.064 269.057 261.895 269.343 261.734 269.628C261.571 269.876 261.487 270.167 261.493 270.463C261.504 270.752 261.61 271.03 261.793 271.253C262.001 271.469 262.25 271.641 262.525 271.759L265.724 273.574L271.448 276.824L279.734 281.56L281.981 282.863L282.56 283.207C282.691 283.288 282.757 283.331 282.75 283.339L282.545 283.244L281.945 282.929L279.668 281.684L271.316 277.058L265.592 273.815L262.386 272.022C262.075 271.885 261.794 271.688 261.559 271.444C261.33 271.161 261.199 270.812 261.185 270.448C261.17 270.086 261.267 269.728 261.463 269.423C261.624 269.138 261.793 268.853 261.961 268.567L266.156 261.328L268.352 257.507L269.501 255.537C269.743 255.178 270.11 254.922 270.531 254.818C270.951 254.714 271.395 254.769 271.777 254.974L286.886 263.487L290.282 265.405L291.9 266.327C292.179 266.469 292.448 266.631 292.705 266.81C292.96 267.028 293.142 267.32 293.225 267.645C293.313 267.956 293.313 268.285 293.225 268.596C293.108 268.873 292.969 269.14 292.808 269.394L291.951 270.858L290.355 273.589C288.313 277.044 286.659 279.847 285.502 281.816C285.262 282.259 284.988 282.682 284.682 283.083C284.41 283.35 284.053 283.513 283.672 283.544C283.442 283.561 283.212 283.523 282.999 283.434C282.913 283.404 282.832 283.362 282.757 283.31Z" fill="#E0E0E0"/>
<path d="M278.892 268.304L280.737 271.576L276.931 271.649L273.124 271.715L275.086 268.369L277.048 265.024L278.892 268.304Z" fill="#E0E0E0"/>
<path d="M527.136 407.852C527.136 407.962 457.12 408.05 370.78 408.05C284.441 408.05 214.403 407.976 214.403 407.852C214.403 407.728 284.404 407.647 370.78 407.647C457.157 407.647 527.136 407.757 527.136 407.852Z" fill="#AA2900"/>
<path d="M291.805 361.363L269.706 339.161L280.818 318.753C291.929 304.523 315.456 305.438 315.456 305.438C327.062 304.649 338.722 305.365 350.145 307.568C368.833 311.228 367.325 323.57 367.325 323.57L369.829 369.371L372.515 406.666L303.597 408.057L291.805 361.392" fill="#FF5500"/>
<path d="M328.932 405.876L267.202 406.608C263.802 406.647 260.447 405.822 257.453 404.209C254.459 402.596 251.924 400.248 250.087 397.387C248.249 394.525 247.169 391.244 246.948 387.85C246.726 384.456 247.371 381.062 248.822 377.986L275.218 329.038L299.264 345.288L282.86 379.304L332.826 380.197L328.932 405.876Z" fill="#FF5500"/>
<path d="M365.144 316.103L414.678 392.582L385.779 394.471C385.779 394.471 368.519 367.277 368.907 367.834C369.595 368.858 365.144 316.103 365.144 316.103Z" fill="#FF5500"/>
<path d="M298.02 349.687C298.022 349.553 298.044 349.42 298.086 349.292C298.159 348.999 298.239 348.633 298.349 348.179C298.576 347.22 298.913 345.83 299.257 344.102C299.601 342.375 299.989 340.296 300.23 337.983C300.528 335.476 300.528 332.943 300.23 330.436C299.833 327.95 298.966 325.563 297.676 323.401C296.639 321.622 295.411 319.96 294.016 318.446C293.075 317.41 292.073 316.432 291.014 315.518C290.611 315.202 290.225 314.865 289.858 314.507C289.977 314.567 290.09 314.638 290.195 314.72C290.4 314.873 290.729 315.086 291.11 315.4C292.21 316.27 293.248 317.216 294.213 318.233C295.656 319.737 296.923 321.399 297.99 323.189C299.326 325.384 300.221 327.818 300.626 330.355C300.915 332.893 300.896 335.457 300.567 337.99C300.32 340.051 299.968 342.099 299.513 344.124C299.132 345.859 298.781 347.242 298.481 348.194C298.349 348.67 298.232 349.036 298.151 349.285C298.121 349.423 298.077 349.558 298.02 349.687Z" fill="#263238"/>
<path d="M296.028 352.323C295.923 352.704 295.781 353.074 295.604 353.428C295.311 354.16 294.872 355.141 294.308 356.356C293.188 358.837 291.6 362.248 289.77 365.982C287.94 369.715 286.212 373.06 284.931 375.498C284.287 376.698 283.76 377.694 283.387 378.33C283.209 378.685 283.003 379.025 282.772 379.348C282.903 378.974 283.065 378.612 283.255 378.265C283.628 377.533 284.112 376.552 284.719 375.373L289.455 365.857C291.249 362.146 292.881 358.793 294.096 356.283C294.667 355.104 295.135 354.123 295.501 353.355C295.648 352.996 295.824 352.651 296.028 352.323Z" fill="#263238"/>
<path d="M328.932 405.876C328.932 405.876 328.932 405.832 328.932 405.751C328.932 405.671 328.932 405.524 328.932 405.37C328.969 405.019 329.02 404.529 329.079 403.906C329.225 402.604 329.43 400.752 329.686 398.416C330.228 393.68 331.004 387.019 331.882 379.165L332.058 379.355H313.824L281.974 379.304L272.312 379.245L269.684 379.209H268.996H268.762C268.84 379.199 268.918 379.199 268.996 379.209H269.684L272.312 379.172L281.974 379.114L313.875 379.062H332.109H332.307V379.253C331.34 387.1 330.528 393.761 329.942 398.49C329.649 400.817 329.408 402.669 329.21 403.972C329.132 404.587 329.066 405.075 329.013 405.436L328.954 405.81C328.947 405.832 328.939 405.876 328.932 405.876Z" fill="#263238"/>
<path d="M283.292 379.846C282.85 379.357 282.439 378.841 282.062 378.301C280.089 375.824 277.646 373.762 274.874 372.233C274.282 371.946 273.705 371.629 273.146 371.281C273.796 371.433 274.42 371.68 274.998 372.013C277.886 373.44 280.383 375.548 282.274 378.155C282.69 378.669 283.032 379.238 283.292 379.846Z" fill="#263238"/>
<path d="M370.854 384.692C370.8 384.483 370.766 384.27 370.751 384.055C370.7 383.608 370.634 383.001 370.546 382.232C370.378 380.651 370.151 378.36 369.909 375.527C369.404 369.854 368.826 362.007 368.314 353.34C367.801 344.673 367.442 336.811 367.237 331.124C367.135 328.276 367.062 326 367.033 324.382C367.033 323.613 367.032 323.006 366.996 322.552C366.985 322.34 366.985 322.127 366.996 321.915C367.036 322.125 367.058 322.338 367.062 322.552C367.062 322.999 367.12 323.613 367.164 324.382C367.245 326.007 367.355 328.298 367.494 331.109C367.765 336.797 368.167 344.644 368.68 353.318C369.192 361.992 369.734 369.825 370.144 375.505C370.363 378.308 370.539 380.629 370.663 382.225C370.722 382.957 370.766 383.601 370.802 384.047C370.839 384.26 370.856 384.476 370.854 384.692Z" fill="#263238"/>
<path d="M315.749 343.077C315.752 342.742 315.779 342.406 315.829 342.074C315.917 341.379 316.027 340.449 316.166 339.308C316.488 336.892 316.898 333.583 317.44 329.748L317.718 329.923L312.982 333.239L308.165 336.592L307.821 336.833L307.88 336.416C308.465 332.617 308.963 329.338 309.344 326.9C309.534 325.78 309.68 324.858 309.797 324.17C309.837 323.84 309.905 323.514 310.002 323.196C310.003 323.53 309.973 323.863 309.915 324.192C309.827 324.88 309.717 325.802 309.571 326.937C309.241 329.338 308.78 332.624 308.253 336.453L307.975 336.277L312.784 332.91L317.527 329.609L317.871 329.367L317.813 329.784C317.249 333.605 316.759 336.914 316.407 339.3C316.224 340.435 316.078 341.364 315.968 342.053C315.926 342.4 315.852 342.743 315.749 343.077Z" fill="#E0E0E0"/>
<path d="M343.301 346.042C343.037 345.832 342.792 345.599 342.569 345.347C342.093 344.834 341.449 344.153 340.659 343.319L334.122 336.233L334.437 336.123C334.283 337.917 334.122 339.864 333.953 341.884C333.785 343.904 333.609 345.91 333.456 347.74L333.419 348.165L333.141 347.85L326.78 340.676L324.964 338.583C324.733 338.343 324.527 338.081 324.35 337.8C324.613 338.024 324.858 338.268 325.082 338.532L326.97 340.552L333.426 347.63L333.112 347.74C333.265 345.917 333.426 343.941 333.602 341.884C333.778 339.827 333.939 337.917 334.093 336.123L334.129 335.706L334.407 336.014L340.849 343.194L342.686 345.295C342.91 345.528 343.116 345.777 343.301 346.042Z" fill="#E0E0E0"/>
<path d="M357.165 345.061C357.029 345.37 356.862 345.664 356.667 345.939L355.203 348.296L349.977 356.407L349.801 356.129L355.482 355.148L361.264 354.174L361.682 354.101L361.484 354.416L356.14 362.366L354.53 364.664C354.351 364.945 354.151 365.212 353.93 365.462C354.074 365.162 354.241 364.873 354.428 364.598L355.892 362.256L361.125 354.204L361.308 354.482L355.526 355.485L349.823 356.451L349.406 356.517L349.64 356.173L354.977 348.121L356.543 345.815C356.735 345.551 356.943 345.3 357.165 345.061Z" fill="#E0E0E0"/>
<path d="M338.726 359.247C338.589 359.553 338.422 359.845 338.228 360.118L336.764 362.483L331.545 370.586L331.362 370.308L337.057 369.327L342.847 368.346L343.265 368.28L343.023 368.624L337.679 376.581L336.106 378.865C335.931 379.147 335.73 379.411 335.505 379.655C335.652 379.357 335.818 379.068 336.003 378.792C336.384 378.206 336.882 377.423 337.467 376.456L342.701 368.404L342.884 368.683L337.101 369.685L331.399 370.644L330.982 370.718L331.216 370.366L336.552 362.314C337.196 361.363 337.723 360.587 338.126 360.008C338.307 359.741 338.508 359.486 338.726 359.247Z" fill="#E0E0E0"/>
<path d="M378.569 344.9C378.424 345.202 378.258 345.493 378.071 345.771L376.607 348.135L371.388 356.239L371.205 355.961L376.9 354.98L382.69 353.999L383.107 353.933L382.873 354.277L377.522 362.234C376.878 363.171 376.351 363.939 375.948 364.51C375.775 364.795 375.574 365.063 375.348 365.308C375.496 365.009 375.665 364.72 375.853 364.444L377.317 362.109L382.551 354.057L382.734 354.335L376.951 355.331L371.249 356.297L370.839 356.37L371.066 356.019L376.402 347.967L377.976 345.661C378.148 345.389 378.347 345.134 378.569 344.9Z" fill="#E0E0E0"/>
<path d="M401.554 381.749C401.292 381.55 401.047 381.329 400.822 381.09L398.816 379.158L391.928 372.409L392.235 372.284C392.177 374.085 392.118 376.032 392.052 378.06C391.987 380.087 391.906 382.1 391.84 383.916V384.34L391.54 384.04L384.835 377.196L382.917 375.197C382.679 374.971 382.459 374.726 382.258 374.465C382.519 374.666 382.764 374.886 382.99 375.124L384.981 377.049L391.789 383.798L391.474 383.923C391.533 382.093 391.599 380.117 391.665 378.067C391.73 376.017 391.811 374.092 391.877 372.291V371.874L392.17 372.167L398.955 379.019L400.895 381.024C401.134 381.247 401.355 381.489 401.554 381.749Z" fill="#E0E0E0"/>
<path d="M285.276 333.144C285.132 333.447 284.966 333.738 284.778 334.015L283.314 336.38L278.095 344.49L277.912 344.212L283.607 343.224L289.397 342.25L289.814 342.177L289.58 342.528L284.229 350.478L282.662 352.762C282.485 353.041 282.284 353.306 282.062 353.552C282.202 353.253 282.369 352.966 282.56 352.696L284.024 350.353C285.349 348.326 287.164 345.544 289.258 342.301L289.441 342.58L283.658 343.582L277.956 344.549L277.546 344.615L277.773 344.27C279.917 341.05 281.762 338.268 283.109 336.218L284.683 333.913C284.86 333.641 285.058 333.384 285.276 333.144Z" fill="#E0E0E0"/>
<path d="M256.332 387.883C256.579 388.106 256.804 388.351 257.006 388.615L258.792 390.76L264.86 398.248L264.538 398.336C264.802 396.557 265.08 394.625 265.38 392.612C265.68 390.599 265.973 388.615 266.244 386.807L266.302 386.39L266.566 386.727L272.466 394.281L274.142 396.477C274.355 396.731 274.546 397.003 274.713 397.289C274.472 397.063 274.25 396.818 274.047 396.557L272.29 394.42L266.324 386.946L266.646 386.866C266.383 388.674 266.097 390.635 265.797 392.67C265.497 394.705 265.211 396.609 264.941 398.387L264.882 398.805L264.619 398.475L258.645 390.906L256.94 388.71C256.719 388.448 256.516 388.172 256.332 387.883Z" fill="#E0E0E0"/>
<path d="M322.432 352.44C322.104 352.51 321.771 352.554 321.436 352.571L318.655 352.813L309.036 353.545L309.153 353.237L313.37 357.19L317.637 361.216L317.945 361.509H317.52L307.953 362.036L305.186 362.153C304.855 362.182 304.522 362.182 304.19 362.153C304.516 362.088 304.847 362.046 305.179 362.029L307.938 361.809L317.498 361.15L317.388 361.458L313.106 357.446L308.905 353.479L308.597 353.186H309.014L318.64 352.608L321.422 352.469C321.757 352.434 322.095 352.424 322.432 352.44Z" fill="#E0E0E0"/>
<path d="M306.211 389.332C306.455 389.562 306.685 389.806 306.899 390.064L308.721 392.173L314.951 399.536L314.629 399.624C314.856 397.838 315.104 395.906 315.361 393.893C315.617 391.88 315.88 389.881 316.093 388.073L316.151 387.649L316.415 387.978L322.476 395.408L324.196 397.604C324.409 397.859 324.605 398.128 324.782 398.409C324.535 398.185 324.307 397.94 324.101 397.677L322.3 395.576L316.151 388.256L316.466 388.161C316.239 389.977 315.99 391.938 315.734 393.981C315.478 396.023 315.222 397.933 315.002 399.719L314.943 400.137L314.68 399.815L308.553 392.363L306.811 390.167C306.584 389.909 306.383 389.63 306.211 389.332Z" fill="#E0E0E0"/>
<path d="M277.216 362.278C276.889 362.35 276.556 362.394 276.221 362.409L273.447 362.644L263.828 363.376L263.938 363.061L268.161 367.021L272.429 371.047L272.736 371.34H272.312L262.745 371.867L259.978 371.984C259.654 372.011 259.328 372.011 259.004 371.984C259.329 371.914 259.66 371.872 259.992 371.86L262.752 371.64L272.312 370.974L272.202 371.289L267.92 367.277L263.711 363.31L263.411 363.017H263.828L273.454 362.431L276.235 362.3C276.561 362.268 276.889 362.26 277.216 362.278Z" fill="#E0E0E0"/>
<path d="M302.126 388.505C301.798 388.575 301.465 388.616 301.131 388.63L298.349 388.871L288.731 389.603L288.848 389.288L293.064 393.249L297.332 397.275L297.639 397.567H297.222L287.647 398.087L284.88 398.212C284.549 398.24 284.216 398.24 283.885 398.212C284.21 398.142 284.541 398.1 284.873 398.087L287.633 397.868L297.193 397.201L297.083 397.516L292.801 393.505L288.599 389.552L288.291 389.267H288.709L298.334 388.681L301.123 388.549C301.456 388.504 301.791 388.49 302.126 388.505Z" fill="#E0E0E0"/>
<path d="M358.351 321.776C358.023 321.846 357.69 321.89 357.356 321.908L354.574 322.142L344.963 322.874L345.073 322.567L349.289 326.519L353.556 330.545L353.864 330.838H353.447L343.872 331.365L341.105 331.482C340.774 331.511 340.441 331.511 340.11 331.482C340.435 331.412 340.765 331.371 341.098 331.358L343.857 331.138L353.425 330.48L353.308 330.787L349.04 326.783L344.838 322.816L344.531 322.523H344.948L354.574 321.937L357.363 321.805C357.691 321.771 358.021 321.761 358.351 321.776Z" fill="#E0E0E0"/>
<path d="M331.003 388.505C331.003 388.505 343.316 384.955 347.393 383.916C348.981 383.513 355.782 387.1 360.481 390.086C360.481 390.086 366.952 393.922 366.432 395.101C365.854 396.403 363.504 396.14 359.661 394.369C359.661 394.369 360.993 398.226 358.38 398.138C358.38 398.138 359.676 402.311 357.231 402.743C354.786 403.175 354.215 397.853 352.063 397.567C349.911 397.282 345.475 396.989 345.475 396.989C345.475 396.989 341.764 403.138 338.887 403.577C336.01 404.016 329.371 403.233 329.371 403.233L331.003 388.505Z" fill="#FFBE9D"/>
<path d="M352.019 389.354C353.225 389.891 354.377 390.541 355.46 391.294C356.609 391.944 357.692 392.704 358.695 393.563C356.337 392.382 354.101 390.973 352.019 389.354Z" fill="#EB996E"/>
<path d="M351.295 391.748C352.701 392.191 354.067 392.751 355.379 393.424C356.735 393.975 358.043 394.639 359.288 395.408C357.881 394.97 356.515 394.412 355.204 393.739C353.845 393.191 352.537 392.525 351.295 391.748Z" fill="#EB996E"/>
<path d="M352.612 397.465C354.472 397.458 356.324 397.704 358.117 398.197C356.257 398.202 354.406 397.956 352.612 397.465Z" fill="#EB996E"/>
<path d="M314.98 261.452C315.125 261.926 315.127 262.433 314.986 262.908C314.845 263.384 314.567 263.807 314.187 264.126C313.807 264.444 313.341 264.644 312.848 264.7C312.355 264.755 311.857 264.664 311.415 264.439C309.746 263.597 309.534 261.291 309.863 259.454C310.193 257.616 310.815 255.647 310.046 253.942C309.453 252.639 308.172 251.812 307.177 250.787C306.298 249.896 305.638 248.814 305.248 247.625C304.859 246.436 304.749 245.173 304.93 243.935C305.141 242.701 305.688 241.549 306.512 240.606C307.336 239.663 308.405 238.966 309.6 238.592C312.052 237.911 315.075 238.665 316.92 236.886C318.245 235.598 318.325 233.497 319.35 231.96C320.939 229.573 324.298 229.193 327.139 229.581C329.979 229.969 332.863 230.884 335.644 230.188C337.965 229.61 339.868 227.992 342.049 226.997C344.427 225.91 347.084 225.593 349.651 226.091C352.217 226.589 354.563 227.877 356.362 229.774C358.16 231.67 359.321 234.082 359.682 236.671C360.042 239.26 359.585 241.897 358.373 244.213C357.565 245.908 356.19 247.268 354.486 248.056" fill="#263238"/>
<path d="M329.108 321.923C330.974 321.919 332.822 321.545 334.543 320.822C336.264 320.099 337.824 319.041 339.133 317.711C340.443 316.381 341.475 314.803 342.17 313.071C342.866 311.339 343.21 309.486 343.184 307.619L343.001 294.165C343.001 294.165 354.303 293.03 355.05 281.831C355.796 270.631 355.262 244.784 355.262 244.784C349.043 241.699 342.114 240.329 335.189 240.814C328.264 241.299 321.594 243.622 315.866 247.544L314.138 248.737L314.98 307.985C315.024 311.701 316.533 315.249 319.178 317.859C321.824 320.468 325.392 321.929 329.108 321.923Z" fill="#FFBE9D"/>
<path d="M352.305 265.112C351.896 265.065 351.519 264.869 351.245 264.562C350.971 264.255 350.82 263.858 350.82 263.447C350.82 263.035 350.971 262.638 351.245 262.331C351.519 262.024 351.896 261.828 352.305 261.781C352.394 261.759 352.487 261.759 352.576 261.781C352.984 261.828 353.362 262.024 353.635 262.331C353.909 262.638 354.06 263.035 354.06 263.447C354.06 263.858 353.909 264.255 353.635 264.562C353.362 264.869 352.984 265.065 352.576 265.112C352.486 265.127 352.394 265.127 352.305 265.112Z" fill="#263238"/>
<path d="M354.501 261.496C354.318 261.686 353.264 260.764 351.719 260.683C350.175 260.603 349.011 261.328 348.857 261.123C348.703 260.918 348.967 260.691 349.479 260.347C350.164 259.907 350.972 259.699 351.783 259.753C352.595 259.807 353.368 260.121 353.988 260.647C354.45 261.057 354.596 261.452 354.501 261.496Z" fill="#263238"/>
<path d="M336.647 261.877C336.913 262.06 337.118 262.319 337.236 262.619C337.355 262.92 337.382 263.249 337.313 263.564C337.245 263.88 337.084 264.168 336.852 264.393C336.62 264.617 336.326 264.768 336.008 264.825C335.69 264.882 335.363 264.844 335.066 264.715C334.77 264.586 334.519 264.373 334.345 264.101C334.17 263.829 334.08 263.511 334.086 263.189C334.092 262.866 334.194 262.552 334.378 262.286C334.625 261.932 335.002 261.689 335.428 261.612C335.853 261.535 336.292 261.631 336.647 261.877Z" fill="#263238"/>
<path d="M337.665 261.942C337.474 262.133 336.42 261.21 334.883 261.13C333.346 261.049 332.175 261.774 332.014 261.569C331.933 261.474 332.131 261.137 332.636 260.793C333.321 260.354 334.128 260.146 334.94 260.2C335.752 260.254 336.525 260.567 337.145 261.093C337.606 261.503 337.753 261.862 337.665 261.942Z" fill="#263238"/>
<path d="M343.184 275.016C343.184 274.899 344.143 274.752 345.709 274.621C346.112 274.621 346.441 274.526 346.478 274.313C346.507 273.91 346.429 273.505 346.251 273.142C345.907 272.095 345.563 271.041 345.197 269.936C343.733 265.376 342.774 261.62 343.001 261.547C343.228 261.474 344.589 265.112 346.031 269.672C346.368 270.785 346.698 271.868 347.012 272.893C347.245 273.426 347.291 274.022 347.144 274.584C347.079 274.736 346.978 274.87 346.851 274.976C346.724 275.081 346.573 275.155 346.412 275.192C346.184 275.243 345.95 275.26 345.717 275.243C344.136 275.214 343.184 275.14 343.184 275.016Z" fill="#263238"/>
<path d="M338.06 276.451C340.413 277.658 342.92 278.538 345.512 279.064C344.944 279.844 344.128 280.41 343.197 280.668C342.267 280.925 341.277 280.861 340.388 280.484C337.086 279.071 338.06 276.451 338.06 276.451Z" fill="white"/>
<path d="M343.045 294.004C337.863 293.819 332.854 292.097 328.654 289.056C328.654 289.056 331.67 297.305 342.906 296.91L343.045 294.004Z" fill="#EB996E"/>
<path d="M355.357 247.617C355.357 247.617 348.586 251.058 339.619 246.797C333.763 244.001 326.904 242.705 325.426 243.913C323.947 245.121 323.749 251.123 318.011 252.99C318.011 252.99 318.633 264.453 314.05 264.131C309.468 263.809 311.986 245.999 311.986 245.999L323.061 240.319L335.22 237.779L346.749 239.177L355.694 241.439L355.357 247.617Z" fill="#263238"/>
<path d="M314.885 260.449C314.702 260.354 307.309 257.748 307.14 265.427C306.972 273.105 314.709 271.693 314.724 271.473C314.739 271.253 314.885 260.449 314.885 260.449Z" fill="#FFBE9D"/>
<path d="M312.44 268.508C312.44 268.508 312.301 268.604 312.074 268.699C311.752 268.829 311.393 268.829 311.071 268.699C310.266 268.384 309.607 267.081 309.607 265.698C309.606 265.038 309.749 264.386 310.024 263.787C310.103 263.549 310.238 263.334 310.418 263.159C310.597 262.985 310.817 262.856 311.056 262.784C311.211 262.756 311.371 262.779 311.512 262.848C311.653 262.918 311.768 263.032 311.84 263.172C311.935 263.384 311.884 263.538 311.92 263.553C311.957 263.567 312.089 263.428 312.037 263.114C311.997 262.922 311.894 262.75 311.745 262.623C311.537 262.46 311.275 262.384 311.013 262.411C310.696 262.466 310.398 262.601 310.148 262.803C309.898 263.006 309.704 263.269 309.585 263.567C309.247 264.227 309.071 264.957 309.073 265.698C309.073 267.242 309.849 268.713 310.947 269.057C311.152 269.12 311.369 269.137 311.581 269.107C311.794 269.076 311.997 268.999 312.176 268.882C312.44 268.699 312.44 268.523 312.44 268.508Z" fill="#EB996E"/>
<path d="M310.976 236.418C311.852 236.161 312.788 236.194 313.643 236.514C314.498 236.833 315.226 237.421 315.719 238.189C315.037 237.672 314.301 237.23 313.523 236.871C312.692 236.632 311.839 236.48 310.976 236.418Z" fill="#263238"/>
<path d="M315.595 231.821C315.734 231.821 315.522 233.438 315.785 235.356C316.013 236.509 316.374 237.632 316.861 238.701C316.861 238.701 316.539 238.431 316.217 237.86C315.804 237.1 315.531 236.272 315.412 235.415C315.199 234.218 315.261 232.989 315.595 231.821Z" fill="#263238"/>
<path d="M347.137 257.792C347.093 257.704 347.422 257.433 348.045 257.184C349.696 256.546 351.53 256.564 353.169 257.236C353.784 257.499 354.113 257.77 354.069 257.858C353.974 258.063 352.495 257.485 350.599 257.485C348.703 257.485 347.225 258.019 347.137 257.792Z" fill="#263238"/>
<path d="M330.008 256.196C329.964 256.108 330.294 255.845 330.916 255.589C331.735 255.272 332.607 255.116 333.485 255.128C334.367 255.127 335.24 255.301 336.054 255.64C336.669 255.903 336.991 256.174 336.955 256.269C336.918 256.365 335.381 255.896 333.478 255.889C331.575 255.881 330.111 256.401 330.008 256.196Z" fill="#263238"/>
<path d="M345.812 259.022C345.828 259.173 345.828 259.325 345.812 259.476C345.812 259.798 345.812 260.208 345.849 260.713C345.885 261.218 345.849 261.899 345.893 262.631C345.865 263.475 345.989 264.318 346.259 265.119C346.612 266.158 347.222 267.091 348.034 267.83C348.846 268.568 349.832 269.089 350.899 269.343C351.512 269.493 352.144 269.547 352.773 269.504C353.428 269.475 354.073 269.339 354.684 269.101C355.986 268.613 357.095 267.717 357.846 266.547C358.557 265.429 358.914 264.123 358.871 262.799C358.871 261.489 358.871 260.23 358.871 259.022L359.047 259.197L349.531 259.11L346.771 259.058H346.039H345.768C346.082 259.024 346.397 259.009 346.712 259.014L349.428 258.963L359.047 258.875H359.288V259.058C359.288 260.266 359.288 261.525 359.288 262.835C359.337 264.232 358.962 265.61 358.212 266.788C357.416 268.028 356.24 268.975 354.86 269.489C354.211 269.738 353.526 269.879 352.832 269.907C352.17 269.946 351.506 269.884 350.863 269.724C349.743 269.453 348.712 268.899 347.868 268.114C347.025 267.33 346.397 266.341 346.046 265.244C345.783 264.407 345.674 263.529 345.724 262.652C345.724 261.92 345.724 261.24 345.761 260.683C345.797 260.127 345.761 259.783 345.797 259.461C345.791 259.314 345.795 259.168 345.812 259.022Z" fill="#263238"/>
<path d="M327.871 258.641C327.871 258.641 327.871 258.809 327.871 259.095V260.332C327.871 260.874 327.871 261.518 327.907 262.257C327.888 263.102 328.012 263.943 328.273 264.746C328.61 265.71 329.164 266.584 329.891 267.301C330.731 268.117 331.775 268.691 332.914 268.962C334.173 269.266 335.495 269.182 336.706 268.721C338.004 268.233 339.111 267.34 339.861 266.173C340.574 265.056 340.934 263.75 340.893 262.426C340.893 261.115 340.893 259.849 340.893 258.641L341.069 258.817L331.553 258.729L328.8 258.685H328.068H327.797C328.108 258.65 328.421 258.636 328.734 258.641L331.45 258.597L341.069 258.509H341.244V258.685C341.244 259.893 341.244 261.159 341.244 262.469C341.288 263.866 340.911 265.243 340.161 266.422C339.365 267.657 338.192 268.602 336.816 269.116C336.167 269.365 335.482 269.505 334.788 269.533C334.124 269.572 333.457 269.511 332.812 269.35C331.615 269.056 330.522 268.441 329.649 267.572C328.894 266.813 328.328 265.888 327.995 264.87C327.732 264.033 327.623 263.155 327.673 262.279C327.673 261.547 327.673 260.866 327.717 260.31C327.761 259.754 327.717 259.41 327.717 259.088C327.744 258.931 327.795 258.781 327.871 258.641Z" fill="#263238"/>
<path d="M345.973 259.556C344.299 259.81 342.596 259.81 340.922 259.556C342.595 259.293 344.3 259.293 345.973 259.556Z" fill="#263238"/>
<path d="M313.904 259.651C316.231 259.457 318.567 259.386 320.902 259.439C323.238 259.373 325.577 259.429 327.907 259.607C325.58 259.81 323.244 259.881 320.909 259.82C318.573 259.894 316.234 259.838 313.904 259.651Z" fill="#263238"/>
<path d="M389.205 397.787C390.85 400.84 393.341 403.353 396.38 405.024C399.418 406.695 402.875 407.454 406.334 407.208C410.42 406.922 414.287 405.251 417.296 402.471C420.305 399.691 422.276 395.968 422.884 391.916L427.13 343.319L410.125 339.117L403.179 377.181C403.179 377.181 399.548 393.131 389.205 397.787Z" fill="#FFBE9D"/>
<path d="M409.972 342.638L410.535 334.11C410.535 334.11 412.944 314.976 412.944 313.102C412.944 310.95 413.976 310.423 414.774 310.481C416.011 310.562 416.889 312.092 416.97 313.944C416.97 314.581 416.911 324.697 416.911 324.697C417.496 323.741 418.149 322.828 418.865 321.966C420.329 320.071 423.872 318.987 427.481 319.104C431.09 319.221 432.078 319.573 432.1 320.971C432.087 321.238 432.015 321.499 431.888 321.735C431.762 321.97 431.584 322.174 431.368 322.332C430.702 322.888 429.856 323.179 428.989 323.152C423.214 323.05 421.669 326.132 421.669 326.132L421.596 327.252C421.596 327.252 425.102 324.741 427.898 325.788C428.311 325.94 428.69 326.174 429.011 326.476C429.798 326.479 430.571 326.688 431.253 327.082C431.935 327.476 432.501 328.041 432.897 328.722C433.293 329.402 433.504 330.174 433.509 330.962C433.515 331.749 433.314 332.524 432.927 333.21C432.777 333.562 432.522 333.859 432.197 334.062C431.873 334.265 431.494 334.363 431.112 334.345C430.725 334.228 430.374 334.014 430.094 333.722C429.93 333.583 429.757 333.456 429.575 333.342L428.93 336.438C428.93 336.438 427.108 343.319 426.654 346.408" fill="#FFBE9D"/>
<path d="M411.633 341.972C412.687 342.265 413.778 341.489 414.349 340.552C414.92 339.615 415.162 338.51 415.659 337.529C417.167 334.601 420.783 333.21 422.167 330.209C422.357 329.792 422.46 329.221 422.094 328.942C421.728 328.664 421.274 328.891 420.901 329.096L411.385 334.367" fill="#FFBE9D"/>
<path d="M411.377 334.352C411.673 334.089 412 333.863 412.351 333.678C412.995 333.276 413.939 332.72 415.11 332.039L419.246 329.674L420.439 329.001C420.884 328.649 421.45 328.489 422.013 328.554C422.187 328.611 422.34 328.719 422.451 328.864C422.562 329.009 422.626 329.184 422.635 329.367C422.654 329.668 422.602 329.969 422.482 330.245C422.262 330.734 421.986 331.195 421.662 331.622C420.344 333.334 418.639 334.41 417.409 335.662C416.811 336.229 416.302 336.883 415.901 337.602C415.542 338.275 415.315 338.978 415.037 339.615C414.866 340.146 414.581 340.634 414.202 341.044C413.822 341.454 413.358 341.775 412.841 341.987C412.058 342.221 411.619 341.987 411.648 341.943C412.027 341.954 412.405 341.892 412.761 341.76C413.218 341.526 413.623 341.2 413.948 340.801C414.273 340.403 414.512 339.942 414.649 339.447C414.884 338.738 415.155 338.041 415.462 337.36C415.866 336.581 416.392 335.872 417.021 335.26C418.28 333.942 419.949 332.837 421.179 331.248C421.468 330.865 421.714 330.45 421.911 330.011C422.094 329.594 422.064 329.177 421.83 329.133C421.596 329.089 421.135 329.286 420.732 329.513L419.517 330.172L415.323 332.456C414.122 333.093 413.127 333.591 412.468 333.92C412.127 334.115 411.759 334.26 411.377 334.352Z" fill="#EB996E"/>
<path d="M421.464 327.332C421.529 326.639 421.757 325.972 422.13 325.385C422.564 324.783 423.18 324.336 423.887 324.111C424.773 323.82 425.699 323.672 426.632 323.672C427.589 323.682 428.545 323.598 429.487 323.423C430.275 323.262 431.008 322.896 431.61 322.362C431.81 322.177 431.965 321.949 432.064 321.696C432.163 321.442 432.203 321.169 432.181 320.898C432.17 320.698 432.104 320.506 431.99 320.341C431.954 320.341 431.99 320.554 432.027 320.905C432.023 321.15 431.967 321.392 431.86 321.613C431.754 321.834 431.601 322.03 431.412 322.186C430.827 322.647 430.138 322.958 429.406 323.094C428.485 323.245 427.551 323.314 426.617 323.299C425.65 323.288 424.688 323.439 423.77 323.745C423.002 324.012 422.346 324.527 421.903 325.209C421.617 325.668 421.45 326.192 421.42 326.732C421.379 326.932 421.394 327.14 421.464 327.332Z" fill="#EB996E"/>
<path d="M416.918 313.226C416.856 313.896 416.856 314.57 416.918 315.239C416.918 316.616 416.918 318.263 416.97 320.078C417.021 321.893 416.97 323.54 416.97 324.916C416.926 325.587 416.94 326.261 417.014 326.929C417.174 326.273 417.255 325.6 417.255 324.924C417.343 323.687 417.402 321.996 417.394 320.078C417.387 318.16 417.314 316.462 417.226 315.225C417.195 314.55 417.092 313.88 416.918 313.226Z" fill="#EB996E"/>
<path d="M423.748 329.579C423.953 329.53 424.149 329.454 424.334 329.352C424.572 329.23 424.834 329.161 425.102 329.148C425.369 329.135 425.637 329.18 425.886 329.279C426.038 329.362 426.167 329.483 426.26 329.631C426.352 329.778 426.405 329.947 426.413 330.121C426.436 330.558 426.404 330.995 426.317 331.424C426.196 331.963 426.283 332.527 426.559 333.005C426.734 333.251 426.964 333.451 427.231 333.591C427.498 333.731 427.795 333.806 428.096 333.81C428.392 333.808 428.685 333.746 428.957 333.628C429.229 333.51 429.474 333.338 429.677 333.122C430.059 332.739 430.314 332.249 430.409 331.717C430.524 330.856 430.512 329.983 430.373 329.125C430.297 328.546 430.121 327.983 429.853 327.464C429.648 327.098 429.458 326.959 429.443 326.973C429.428 326.988 429.56 327.171 429.714 327.53C429.915 328.056 430.04 328.608 430.087 329.169C430.183 329.995 430.171 330.829 430.051 331.651C429.957 332.116 429.716 332.539 429.362 332.856C429.009 333.173 428.562 333.366 428.089 333.408C427.851 333.406 427.616 333.349 427.404 333.241C427.192 333.133 427.008 332.977 426.866 332.785C426.645 332.384 426.575 331.917 426.669 331.468C426.75 331.006 426.77 330.536 426.727 330.07C426.706 329.847 426.628 329.633 426.499 329.45C426.371 329.266 426.197 329.119 425.995 329.023C425.711 328.915 425.404 328.875 425.101 328.908C424.798 328.941 424.508 329.046 424.253 329.213C423.909 329.418 423.704 329.528 423.748 329.579Z" fill="#EB996E"/>
<path d="M429.509 332.815C429.458 333.006 429.478 333.209 429.567 333.386C429.67 333.637 429.829 333.861 430.032 334.041C430.235 334.221 430.477 334.353 430.739 334.425C431.133 334.51 431.542 334.491 431.927 334.37C432.312 334.25 432.659 334.032 432.935 333.737C433.594 333.012 433.949 332.06 433.923 331.08C433.923 330.112 433.621 329.167 433.059 328.379C432.601 327.736 431.975 327.229 431.251 326.915C430.776 326.7 430.264 326.579 429.743 326.556C429.377 326.556 429.179 326.556 429.179 326.615C429.855 326.702 430.514 326.889 431.134 327.171C431.784 327.494 432.343 327.975 432.759 328.569C433.245 329.307 433.5 330.174 433.491 331.058C433.515 331.936 433.213 332.791 432.642 333.459C432.41 333.722 432.115 333.921 431.784 334.037C431.454 334.154 431.099 334.184 430.753 334.125C430.523 334.073 430.306 333.973 430.118 333.83C429.93 333.687 429.774 333.506 429.663 333.298C429.56 333.02 429.56 332.815 429.509 332.815Z" fill="#EB996E"/>
<path d="M422.555 339.578C422.24 339.479 421.903 339.479 421.588 339.578C420.764 339.759 420.023 340.206 419.48 340.852L419.817 340.955C419.773 340.501 419.699 340.051 419.597 339.608C419.306 338.034 418.584 336.572 417.511 335.384C418.228 336.757 418.797 338.202 419.209 339.695C419.312 340.149 419.385 340.589 419.436 340.998L419.495 341.452L419.78 341.094C420.266 340.495 420.914 340.05 421.647 339.813C422.196 339.644 422.555 339.63 422.555 339.578Z" fill="#EB996E"/>
<path d="M422.738 322.369C422.643 322.413 423.031 323.101 423.924 323.518C424.817 323.936 425.607 323.694 425.571 323.592C425.534 323.489 424.839 323.496 424.107 323.152C423.375 322.808 422.833 322.296 422.738 322.369Z" fill="#EB996E"/>
<path d="M407.044 348.157L428.411 349.687C428.411 349.687 425.124 387.495 424.487 393.358C423.85 399.222 420.095 408.064 407.044 408.064C393.992 408.064 391.562 403.621 385.757 394.471C392.601 389.728 403.471 375.563 403.471 375.563L407.044 348.157Z" fill="#FF5500"/>
<path d="M417.116 353.245C417.006 353.564 416.874 353.874 416.721 354.174L415.528 356.693L411.311 365.396L411.099 365.14L416.64 363.493L422.269 361.839L422.679 361.721L422.482 362.095L418.09 370.623L416.794 373.075C416.651 373.374 416.482 373.661 416.289 373.931C416.401 373.618 416.533 373.312 416.684 373.016C416.992 372.387 417.416 371.552 417.885 370.52L422.137 361.934L422.35 362.19L416.728 363.859L411.179 365.484L410.777 365.601L410.967 365.228L415.337 356.612C415.872 355.595 416.303 354.76 416.626 354.138C416.764 353.827 416.928 353.528 417.116 353.245Z" fill="#E0E0E0"/>
<path d="M415.096 389.611C414.768 389.681 414.435 389.725 414.1 389.742L411.319 389.984L401.7 390.716L401.817 390.401L406.034 394.354L410.301 398.38L410.609 398.673H410.184L400.617 399.2L397.85 399.317C397.519 399.346 397.185 399.346 396.854 399.317C397.18 399.252 397.511 399.213 397.842 399.2L400.602 398.973L410.162 398.314L410.052 398.629L405.77 394.61L401.568 390.643L401.261 390.357H401.678L411.304 389.779L414.093 389.64C414.426 389.605 414.761 389.595 415.096 389.611Z" fill="#E0E0E0"/>
<path d="M453.138 254.549L431.346 246.724L409.796 254.447C407.044 255.742 404.628 256.526 404.628 259.088V271.868C404.577 280.845 407.028 289.659 411.706 297.32C416.381 305.052 423.308 311.169 431.558 314.851C440.342 311.989 446.93 304.347 450.993 297.818C455.684 290.16 458.148 281.346 458.108 272.366V260.874C458.108 257.214 456.161 255.428 453.138 254.549Z" fill="#FF5500"/>
<g opacity="0.3">
<path d="M431.558 307.414C425.02 304.466 419.541 299.587 415.857 293.433C412.148 287.379 410.199 280.411 410.228 273.31V264.38C410.228 262.345 411.458 260.442 413.888 259.307L431.353 252.778V246.753L409.796 254.447C407.534 255.435 404.628 256.526 404.628 259.088V271.868C404.577 280.845 407.028 289.659 411.706 297.32C416.381 305.052 423.308 311.169 431.558 314.851V307.414Z" fill="black"/>
</g>
<g opacity="0.4">
<path d="M431.558 314.829C433.037 314.347 434.47 313.734 435.84 312.999C439.211 311.093 442.276 308.689 444.932 305.87C447.333 303.283 449.446 300.443 451.234 297.401C455.981 289.686 458.37 280.754 458.108 271.7V261.152C458.108 255.896 455.399 255.508 453.13 254.52L431.339 246.695V252.719L449.009 259.358C451.439 260.493 452.669 262.396 452.669 264.424V273.391C452.698 280.489 450.749 287.454 447.04 293.506C443.435 299.632 438.022 304.49 431.544 307.414L431.558 314.829Z" fill="black"/>
</g>
<path opacity="0.5" d="M437.129 272.739V271.012C437.129 269.511 436.533 268.072 435.472 267.011C434.41 265.95 432.971 265.354 431.471 265.354C429.97 265.354 428.531 265.95 427.469 267.011C426.408 268.072 425.812 269.511 425.812 271.012V272.769C425.063 272.881 424.38 273.258 423.885 273.832C423.391 274.405 423.119 275.137 423.118 275.894V286.069C423.118 286.908 423.452 287.712 424.045 288.305C424.638 288.898 425.442 289.231 426.281 289.231H436.88C437.719 289.231 438.523 288.898 439.116 288.305C439.709 287.712 440.042 286.908 440.042 286.069V275.894C440.043 275.098 439.743 274.331 439.203 273.747C438.663 273.162 437.922 272.802 437.129 272.739ZM433.008 283.529H430.241L430.673 281.531C430.37 281.334 430.139 281.044 430.014 280.705C429.89 280.366 429.878 279.995 429.981 279.649C430.084 279.303 430.296 278.999 430.585 278.783C430.875 278.567 431.226 278.45 431.588 278.45C431.949 278.45 432.301 278.567 432.59 278.783C432.88 278.999 433.092 279.303 433.195 279.649C433.297 279.995 433.286 280.366 433.161 280.705C433.036 281.044 432.805 281.334 432.503 281.531C432.693 282.277 433.008 283.529 433.008 283.529ZM435.936 272.725H427.035V271.012C427.081 269.866 427.569 268.782 428.397 267.987C429.224 267.193 430.327 266.749 431.474 266.749C432.621 266.749 433.724 267.193 434.552 267.987C435.379 268.782 435.867 269.866 435.914 271.012L435.936 272.725Z" fill="white"/>
<path d="M413.763 272.615C413.573 272.042 413.462 271.446 413.434 270.844C413.271 269.403 413.212 267.952 413.258 266.503C413.258 265.654 413.339 264.849 413.412 264.117C413.448 263.449 413.615 262.795 413.902 262.191C414.108 261.778 414.442 261.442 414.854 261.232C415.154 261.093 415.337 261.101 415.337 261.123C414.811 261.364 414.388 261.784 414.144 262.308C413.91 262.894 413.781 263.516 413.763 264.146C413.705 264.878 413.661 265.676 413.639 266.517C413.588 268.194 413.639 269.716 413.705 270.822C413.771 271.417 413.791 272.017 413.763 272.615Z" fill="white"/>
<path d="M414.078 278.171C413.976 278.171 413.88 277.651 413.866 277C413.851 276.348 413.932 275.821 414.034 275.821C414.137 275.821 414.232 276.341 414.246 276.992C414.261 277.644 414.188 278.171 414.078 278.171Z" fill="white"/>
<path d="M392.462 345.068L368.167 405.151H324.357V407.867H454.851L481.547 345.068H392.462Z" fill="#AA2900"/>
<path d="M429.604 380.541C428.726 383.564 426.164 385.475 423.88 384.816C421.596 384.157 420.461 381.156 421.34 378.133C422.218 375.11 424.787 373.199 427.071 373.858C429.355 374.517 430.49 377.518 429.604 380.541Z" fill="#FAFAFA"/>
<defs>
<radialGradient id="paint0_radial_64_330" cx="0" cy="0" r="1" gradientUnits="userSpaceOnUse" gradientTransform="translate(350.5 262.5) rotate(90) scale(262.5 350.5)">
<stop stop-color="white"/>
<stop offset="1" stop-color="#831B1B" stop-opacity="0"/>
</radialGradient>
</defs>
</svg>
