<svg width="866" height="832" viewBox="0 0 866 832" fill="none" xmlns="http://www.w3.org/2000/svg">
<g clip-path="url(#clip0_47_946)">
<path fill-rule="evenodd" clip-rule="evenodd" d="M0 0H866V416V832H0V0Z" fill="url(#paint0_radial_47_946)"/>
<path fill-rule="evenodd" clip-rule="evenodd" d="M864.799 0.140411H0V308.07C0 308.07 106.292 356.82 340.599 308.07C574.906 259.32 866 333.515 866 333.515L864.799 0.140411Z" fill="url(#paint1_radial_47_946)"/>
<mask id="mask0_47_946" style="mask-type:luminance" maskUnits="userSpaceOnUse" x="0" y="0" width="866" height="334">
<path fill-rule="evenodd" clip-rule="evenodd" d="M864.799 0.140411H0V308.07C0 308.07 106.292 356.82 340.599 308.07C574.906 259.32 866 333.515 866 333.515L864.799 0.140411Z" fill="white"/>
</mask>
<g mask="url(#mask0_47_946)">
<g opacity="0.1">
<path style="mix-blend-mode:overlay" d="M432.677 463.948C573.331 463.948 687.354 360.151 687.354 232.111C687.354 104.071 573.331 0.273987 432.677 0.273987C292.023 0.273987 178 104.071 178 232.111C178 360.151 292.023 463.948 432.677 463.948Z" fill="url(#paint2_radial_47_946)"/>
</g>
<g opacity="0.1">
<path style="mix-blend-mode:overlay" d="M433.127 405.681C538.182 405.681 623.346 328.155 623.346 232.521C623.346 136.887 538.182 59.361 433.127 59.361C328.072 59.361 242.908 136.887 242.908 232.521C242.908 328.155 328.072 405.681 433.127 405.681Z" fill="url(#paint3_radial_47_946)"/>
</g>
<g opacity="0.1">
<path style="mix-blend-mode:overlay" d="M434.029 358.083C509.709 358.083 571.059 302.235 571.059 233.342C571.059 164.449 509.709 108.601 434.029 108.601C358.349 108.601 296.999 164.449 296.999 233.342C296.999 302.235 358.349 358.083 434.029 358.083Z" fill="url(#paint4_radial_47_946)"/>
</g>
<g opacity="0.1">
<path style="mix-blend-mode:overlay" d="M433.127 311.305C480.925 311.305 519.672 276.032 519.672 232.521C519.672 189.01 480.925 153.737 433.127 153.737C385.33 153.737 346.582 189.01 346.582 232.521C346.582 276.032 385.33 311.305 433.127 311.305Z" fill="url(#paint5_radial_47_946)"/>
</g>
<g opacity="0.1">
<path style="mix-blend-mode:overlay" d="M434.029 270.272C456.434 270.272 474.597 253.738 474.597 233.342C474.597 212.946 456.434 196.412 434.029 196.412C411.624 196.412 393.461 212.946 393.461 233.342C393.461 253.738 411.624 270.272 434.029 270.272Z" fill="url(#paint6_radial_47_946)"/>
</g>
<path d="M520.123 171.792C520.87 171.792 521.475 171.241 521.475 170.561C521.475 169.881 520.87 169.33 520.123 169.33C519.376 169.33 518.771 169.881 518.771 170.561C518.771 171.241 519.376 171.792 520.123 171.792Z" fill="white"/>
<path d="M297.45 65.9265C298.197 65.9265 298.802 65.3754 298.802 64.6955C298.802 64.0156 298.197 63.4645 297.45 63.4645C296.703 63.4645 296.098 64.0156 296.098 64.6955C296.098 65.3754 296.703 65.9265 297.45 65.9265Z" fill="white"/>
<path d="M446.65 88.9051C447.148 88.9051 447.552 88.5376 447.552 88.0844C447.552 87.6311 447.148 87.2637 446.65 87.2637C446.152 87.2637 445.749 87.6311 445.749 88.0844C445.749 88.5376 446.152 88.9051 446.65 88.9051Z" fill="white"/>
<path d="M557.986 65.1058C558.235 65.1058 558.437 64.9221 558.437 64.6955C558.437 64.4689 558.235 64.2852 557.986 64.2852C557.737 64.2852 557.535 64.4689 557.535 64.6955C557.535 64.9221 557.737 65.1058 557.986 65.1058Z" fill="white"/>
<path d="M345.23 111.063C345.479 111.063 345.681 110.88 345.681 110.653C345.681 110.426 345.479 110.243 345.23 110.243C344.981 110.243 344.779 110.426 344.779 110.653C344.779 110.88 344.981 111.063 345.23 111.063Z" fill="white"/>
<path d="M530.039 115.166C530.288 115.166 530.49 114.983 530.49 114.756C530.49 114.529 530.288 114.346 530.039 114.346C529.79 114.346 529.588 114.529 529.588 114.756C529.588 114.983 529.79 115.166 530.039 115.166Z" fill="white"/>
<path d="M279.42 273.554C279.669 273.554 279.871 273.371 279.871 273.144C279.871 272.917 279.669 272.734 279.42 272.734C279.171 272.734 278.969 272.917 278.969 273.144C278.969 273.371 279.171 273.554 279.42 273.554Z" fill="white"/>
<path d="M571.058 201.336C571.556 201.336 571.96 200.968 571.96 200.515C571.96 200.062 571.556 199.694 571.058 199.694C570.56 199.694 570.156 200.062 570.156 200.515C570.156 200.968 570.56 201.336 571.058 201.336Z" fill="white"/>
<path d="M294.295 201.336C294.793 201.336 295.196 200.968 295.196 200.515C295.196 200.062 294.793 199.694 294.295 199.694C293.797 199.694 293.393 200.062 293.393 200.515C293.393 200.968 293.797 201.336 294.295 201.336Z" fill="white"/>
<path fill-rule="evenodd" clip-rule="evenodd" d="M372.75 72.0139C415.713 92.7517 442.651 124.34 442.514 124.52C442.376 124.699 441.35 123.862 440.921 123.504C440.492 123.145 406.996 88.4327 372.75 72.0139Z" fill="url(#paint7_linear_47_946)"/>
<path d="M142.377 122.568C141.73 122.228 140.904 122.429 140.53 123.018C140.157 123.607 140.379 124.36 141.026 124.7C141.673 125.04 142.5 124.839 142.873 124.25C143.246 123.661 143.024 122.908 142.377 122.568Z" fill="white"/>
<path d="M277.114 315.678C276.467 315.338 275.641 315.539 275.267 316.128C274.894 316.717 275.116 317.47 275.763 317.81C276.41 318.15 277.236 317.949 277.61 317.36C277.983 316.771 277.761 316.018 277.114 315.678Z" fill="white"/>
<path d="M160.514 227.817C160.083 227.59 159.532 227.724 159.283 228.117C159.034 228.51 159.182 229.012 159.613 229.238C160.044 229.465 160.596 229.331 160.844 228.938C161.093 228.546 160.945 228.044 160.514 227.817Z" fill="white"/>
<path d="M51.0325 197.713C50.8171 197.6 50.5417 197.667 50.4174 197.863C50.2931 198.06 50.3669 198.311 50.5823 198.424C50.7977 198.537 51.0731 198.47 51.1974 198.274C51.3218 198.078 51.2479 197.827 51.0325 197.713Z" fill="white"/>
<path d="M260.508 254.824C260.293 254.711 260.017 254.778 259.893 254.974C259.769 255.171 259.843 255.422 260.058 255.535C260.273 255.648 260.549 255.581 260.673 255.385C260.797 255.189 260.724 254.938 260.508 254.824Z" fill="white"/>
<path d="M102.71 167.09C102.495 166.977 102.219 167.044 102.095 167.24C101.971 167.437 102.045 167.688 102.26 167.801C102.475 167.914 102.751 167.847 102.875 167.651C102.999 167.455 102.926 167.204 102.71 167.09Z" fill="white"/>
<path d="M406.684 144.08C406.469 143.967 406.193 144.034 406.069 144.23C405.945 144.427 406.019 144.678 406.234 144.791C406.449 144.904 406.725 144.837 406.849 144.641C406.973 144.445 406.9 144.194 406.684 144.08Z" fill="white"/>
<path d="M114.481 73.7805C114.05 73.5537 113.499 73.6881 113.25 74.0806C113.001 74.4731 113.149 74.9751 113.58 75.2019C114.011 75.4287 114.563 75.2944 114.811 74.9019C115.06 74.5093 114.912 74.0073 114.481 73.7805Z" fill="white"/>
<path d="M354.165 199.847C353.734 199.62 353.183 199.754 352.934 200.147C352.685 200.54 352.833 201.042 353.264 201.268C353.695 201.495 354.247 201.361 354.495 200.968C354.744 200.576 354.596 200.074 354.165 199.847Z" fill="white"/>
<path d="M559.187 112.825C558.561 112.454 558.382 111.692 558.789 111.121C559.195 110.551 560.033 110.389 560.659 110.76C561.285 111.131 561.463 111.893 561.057 112.463C560.651 113.034 559.813 113.195 559.187 112.825Z" fill="white"/>
<path d="M809.228 134.522C808.602 134.151 808.423 133.389 808.83 132.818C809.236 132.248 810.074 132.086 810.7 132.457C811.326 132.828 811.504 133.59 811.098 134.16C810.692 134.731 809.854 134.892 809.228 134.522Z" fill="white"/>
<path d="M670.361 79.7647C669.943 79.5177 669.824 79.0093 670.095 78.6291C670.366 78.249 670.924 78.1411 671.342 78.3882C671.759 78.6352 671.878 79.1436 671.607 79.5237C671.336 79.9039 670.778 80.0117 670.361 79.7647Z" fill="white"/>
<path d="M591.215 4.56332C591.006 4.43991 590.947 4.18585 591.082 3.99587C591.218 3.80588 591.497 3.75191 591.705 3.87533C591.914 3.99874 591.973 4.2528 591.838 4.44278C591.702 4.63277 591.423 4.68674 591.215 4.56332Z" fill="white"/>
<path d="M742.172 148.67C741.963 148.546 741.904 148.292 742.039 148.102C742.175 147.912 742.454 147.858 742.662 147.982C742.871 148.105 742.93 148.359 742.795 148.549C742.659 148.739 742.38 148.793 742.172 148.67Z" fill="white"/>
<path d="M584.725 60.4138C584.516 60.2904 584.457 60.0363 584.592 59.8464C584.728 59.6564 585.007 59.6024 585.215 59.7258C585.424 59.8492 585.483 60.1033 585.348 60.2933C585.212 60.4833 584.933 60.5372 584.725 60.4138Z" fill="white"/>
<path d="M700.221 317.599C700.012 317.475 699.953 317.221 700.088 317.031C700.224 316.841 700.503 316.787 700.711 316.911C700.92 317.034 700.979 317.288 700.844 317.478C700.708 317.668 700.429 317.722 700.221 317.599Z" fill="white"/>
<path d="M498.807 112.329C498.389 112.082 498.27 111.574 498.541 111.194C498.812 110.814 499.37 110.706 499.788 110.953C500.205 111.2 500.324 111.708 500.053 112.088C499.782 112.468 499.224 112.576 498.807 112.329Z" fill="white"/>
<path d="M730.92 249.651C730.502 249.404 730.383 248.896 730.654 248.516C730.925 248.136 731.483 248.028 731.901 248.275C732.318 248.522 732.437 249.03 732.166 249.41C731.895 249.79 731.337 249.898 730.92 249.651Z" fill="white"/>
<path fill-rule="evenodd" clip-rule="evenodd" d="M360.521 149.532L416.195 207.878C417.773 209.531 418.719 211.604 418.89 213.779C419.481 221.328 422.766 228.524 428.242 234.263L499.129 308.552L419.585 371.545L350.131 298.758C307.808 254.404 312.46 187.593 360.521 149.532Z" fill="url(#paint8_linear_47_946)"/>
<path fill-rule="evenodd" clip-rule="evenodd" d="M430.522 236.652L498.888 308.3L549.031 268.59C561.371 258.818 580.183 260.128 591.049 271.516L631.942 314.371L479.912 434.767L350.977 299.645L430.522 236.652Z" fill="url(#paint9_linear_47_946)"/>
<g style="mix-blend-mode:multiply" opacity="0.6">
<path d="M629.615 331.241L579.35 278.564C574.775 273.769 566.854 273.217 561.659 277.332L528.803 303.351C523.608 307.465 523.105 314.688 527.68 319.482L577.945 372.159C582.52 376.954 590.441 377.506 595.637 373.391L628.492 347.372C633.687 343.258 634.19 336.036 629.615 331.241Z" fill="url(#paint10_linear_47_946)"/>
</g>
<path d="M423.757 258.332C425.39 260.044 428.236 260.226 430.113 258.739C431.991 257.253 432.188 254.66 430.555 252.948C428.922 251.237 426.076 251.054 424.199 252.541C422.321 254.028 422.123 256.621 423.757 258.332Z" fill="#0CAD3D"/>
<path d="M410.159 269.1C411.792 270.812 414.638 270.994 416.515 269.507C418.393 268.021 418.59 265.428 416.957 263.716C415.324 262.005 412.478 261.822 410.601 263.309C408.723 264.796 408.525 267.389 410.159 269.1Z" fill="#0CAD3D"/>
<path d="M396.562 279.868C398.195 281.58 401.041 281.762 402.918 280.275C404.796 278.789 404.994 276.196 403.36 274.484C401.727 272.773 398.881 272.59 397.004 274.077C395.126 275.564 394.928 278.157 396.562 279.868Z" fill="#0CAD3D"/>
<path d="M382.965 290.636C384.598 292.348 387.444 292.53 389.321 291.043C391.199 289.557 391.396 286.964 389.763 285.252C388.13 283.541 385.284 283.358 383.407 284.845C381.529 286.332 381.331 288.925 382.965 290.636Z" fill="#0CAD3D"/>
<path d="M369.367 301.404C371 303.116 373.846 303.298 375.723 301.811C377.601 300.325 377.798 297.732 376.165 296.02C374.532 294.309 371.686 294.126 369.809 295.613C367.931 297.1 367.733 299.693 369.367 301.404Z" fill="#0CAD3D"/>
<g style="mix-blend-mode:multiply" opacity="0.6">
<path d="M342.619 228.931C351.439 238.174 366.807 239.158 376.945 231.13C387.083 223.101 388.151 209.1 379.332 199.857C370.513 190.615 355.145 189.63 345.007 197.659C334.869 205.687 333.8 219.688 342.619 228.931Z" fill="url(#paint11_linear_47_946)"/>
</g>
<path d="M433.483 130.927L431.117 128.448L379.447 169.367L381.813 171.846L433.483 130.927Z" fill="#A0B3CE"/>
<path fill-rule="evenodd" clip-rule="evenodd" d="M431.117 128.448L433.65 131.177L434.051 158.16L422.586 156.221L413.212 172.414L412.081 143.523L431.117 128.448Z" fill="url(#paint12_linear_47_946)"/>
<path fill-rule="evenodd" clip-rule="evenodd" d="M470.565 216.272C477.675 215.08 484.993 217.433 489.782 222.451L540.601 275.709L499.129 308.552L419.284 224.875L470.565 216.272Z" fill="url(#paint13_linear_47_946)"/>
<g style="mix-blend-mode:multiply" opacity="0.6">
<path fill-rule="evenodd" clip-rule="evenodd" d="M474.512 229.508C476.7 229.141 478.952 229.865 480.425 231.409L516.224 268.926C518.512 271.323 518.26 274.934 515.662 276.992L502.634 287.309C500.036 289.366 496.076 289.091 493.788 286.693L451.301 242.167C448.105 238.817 450.05 233.612 454.795 232.815L474.512 229.508Z" fill="url(#paint14_linear_47_946)"/>
</g>
</g>
<path opacity="0.652853" fill-rule="evenodd" clip-rule="evenodd" d="M866 832.31L0 829.11V297.274C0 297.274 239.011 481.964 399.544 348.436C560.077 214.908 866 320.895 866 320.895V832.31Z" fill="url(#paint15_radial_47_946)"/>
<g opacity="0.07">
<path style="mix-blend-mode:overlay" d="M680.54 761.663C723.931 761.663 759.106 726.39 759.106 682.879C759.106 639.368 723.931 604.095 680.54 604.095C637.149 604.095 601.974 639.368 601.974 682.879C601.974 726.39 637.149 761.663 680.54 761.663Z" fill="url(#paint16_radial_47_946)"/>
</g>
<g opacity="0.07">
<path style="mix-blend-mode:overlay" d="M680.949 734.581C709.198 734.581 732.099 711.617 732.099 683.29C732.099 654.963 709.198 631.999 680.949 631.999C652.7 631.999 629.799 654.963 629.799 683.29C629.799 711.617 652.7 734.581 680.949 734.581Z" fill="url(#paint17_radial_47_946)"/>
</g>
<g opacity="0.07">
<path style="mix-blend-mode:overlay" d="M680.949 706.679C693.831 706.679 704.273 696.207 704.273 683.29C704.273 670.373 693.831 659.901 680.949 659.901C668.067 659.901 657.625 670.373 657.625 683.29C657.625 696.207 668.067 706.679 680.949 706.679Z" fill="url(#paint18_radial_47_946)"/>
</g>
<g opacity="0.810009">
<g opacity="0.3">
<path style="mix-blend-mode:overlay" fill-rule="evenodd" clip-rule="evenodd" d="M843.27 781.586C851.425 768.49 821.303 734.653 775.064 704.101C775.337 703.882 775.61 703.652 775.883 703.411C771.422 695.448 778.499 685.592 786.292 676.469C778.286 673.503 763.313 682.68 754.205 688.263C753.311 688.811 752.474 689.324 751.705 689.787C706.933 664.444 667.294 653.94 659.549 666.379C651.109 679.933 683.666 715.701 732.655 747.051C734.86 754.571 737.942 761.589 742.471 763.879C742.846 760.521 743.301 757.165 743.96 754.027C791.598 782.344 835.115 794.684 843.27 781.586Z" fill="url(#paint19_linear_47_946)"/>
</g>
<mask id="mask1_47_946" style="mask-type:luminance" maskUnits="userSpaceOnUse" x="658" y="661" width="187" height="126">
<path fill-rule="evenodd" clip-rule="evenodd" d="M843.27 781.586C851.425 768.49 821.303 734.653 775.064 704.101C775.337 703.882 775.61 703.652 775.883 703.411C771.422 695.448 778.499 685.592 786.292 676.469C778.286 673.503 763.313 682.68 754.205 688.263C753.311 688.811 752.474 689.324 751.705 689.787C706.933 664.444 667.294 653.94 659.549 666.379C651.109 679.933 683.666 715.701 732.655 747.051C734.86 754.571 737.942 761.589 742.471 763.879C742.846 760.521 743.301 757.165 743.96 754.027C791.598 782.344 835.115 794.684 843.27 781.586Z" fill="white"/>
</mask>
<g mask="url(#mask1_47_946)">
<g opacity="0.0743886">
<g style="mix-blend-mode:overlay">
<path d="M751.022 712.641C805.683 722.313 853.027 712.892 856.769 691.599C860.51 670.306 819.232 645.203 764.571 635.531C709.91 625.859 662.565 635.28 658.824 656.573C655.082 677.866 696.361 702.968 751.022 712.641Z" fill="#DEEAF4"/>
</g>
</g>
</g>
</g>
</g>
<defs>
<radialGradient id="paint0_radial_47_946" cx="0" cy="0" r="1" gradientUnits="userSpaceOnUse" gradientTransform="translate(443.875 388.293) rotate(82.8584) scale(381.711 396.837)">
<stop stop-color="#0CAD3D"/>
<stop offset="1" stop-color="#114220"/>
</radialGradient>
<radialGradient id="paint1_radial_47_946" cx="0" cy="0" r="1" gradientUnits="userSpaceOnUse" gradientTransform="translate(433 360.175) rotate(18.8499) scale(454.977 280.238)">
<stop stop-color="#0CAD3D"/>
<stop offset="1" stop-color="#35563F"/>
</radialGradient>
<radialGradient id="paint2_radial_47_946" cx="0" cy="0" r="1" gradientUnits="userSpaceOnUse" gradientTransform="translate(438.219 7.13037) rotate(88.4104) scale(286.57 314.76)">
<stop stop-color="#0CAD3D"/>
<stop offset="1" stop-color="#48FF80"/>
</radialGradient>
<radialGradient id="paint3_radial_47_946" cx="0" cy="0" r="1" gradientUnits="userSpaceOnUse" gradientTransform="translate(437.267 64.4826) rotate(88.4104) scale(214.04 235.095)">
<stop stop-color="#0CAD3D"/>
<stop offset="1" stop-color="#48FF80"/>
</radialGradient>
<radialGradient id="paint4_radial_47_946" cx="0" cy="0" r="1" gradientUnits="userSpaceOnUse" gradientTransform="translate(437.011 112.29) rotate(88.4104) scale(154.19 169.357)">
<stop stop-color="#0CAD3D"/>
<stop offset="1" stop-color="#48FF80"/>
</radialGradient>
<radialGradient id="paint5_radial_47_946" cx="0" cy="0" r="1" gradientUnits="userSpaceOnUse" gradientTransform="translate(435.011 156.067) rotate(88.4104) scale(97.3829 106.963)">
<stop stop-color="#0CAD3D"/>
<stop offset="1" stop-color="#48FF80"/>
</radialGradient>
<radialGradient id="paint6_radial_47_946" cx="0" cy="0" r="1" gradientUnits="userSpaceOnUse" gradientTransform="translate(434.912 197.504) rotate(88.4104) scale(45.6482 50.1387)">
<stop stop-color="#0CAD3D"/>
<stop offset="1" stop-color="#48FF80"/>
</radialGradient>
<linearGradient id="paint7_linear_47_946" x1="379.685" y1="77.8771" x2="374.957" y2="87.7494" gradientUnits="userSpaceOnUse">
<stop stop-color="white" stop-opacity="0.417969"/>
<stop offset="1" stop-color="white"/>
</linearGradient>
<linearGradient id="paint8_linear_47_946" x1="322.977" y1="80.5976" x2="237.954" y2="181.371" gradientUnits="userSpaceOnUse">
<stop stop-color="#FDFEFF"/>
<stop offset="1" stop-color="#CED6DC"/>
</linearGradient>
<linearGradient id="paint9_linear_47_946" x1="439.418" y1="340.375" x2="437.537" y2="252.219" gradientUnits="userSpaceOnUse">
<stop stop-color="#ABB9C5"/>
<stop offset="1" stop-color="#EFF1F3"/>
</linearGradient>
<linearGradient id="paint10_linear_47_946" x1="663.947" y1="411.586" x2="686.976" y2="305.191" gradientUnits="userSpaceOnUse">
<stop stop-color="#DFE6EC"/>
<stop offset="1" stop-color="#BCC9D4"/>
</linearGradient>
<linearGradient id="paint11_linear_47_946" x1="402.138" y1="255.282" x2="404.38" y2="190.493" gradientUnits="userSpaceOnUse">
<stop stop-color="#DFE6EC"/>
<stop offset="1" stop-color="#BCC9D4"/>
</linearGradient>
<linearGradient id="paint12_linear_47_946" x1="422.785" y1="113.415" x2="408.522" y2="165.338" gradientUnits="userSpaceOnUse">
<stop stop-color="#FFBABA"/>
<stop offset="1" stop-color="#FF8EA7"/>
</linearGradient>
<linearGradient id="paint13_linear_47_946" x1="515.736" y1="368.048" x2="573.928" y2="295.348" gradientUnits="userSpaceOnUse">
<stop stop-color="#ABB9C5"/>
<stop offset="1" stop-color="#EFF1F3"/>
</linearGradient>
<linearGradient id="paint14_linear_47_946" x1="550.304" y1="323.906" x2="574.193" y2="274.326" gradientUnits="userSpaceOnUse">
<stop stop-color="#DFE6EC"/>
<stop offset="1" stop-color="#BCC9D4"/>
</linearGradient>
<radialGradient id="paint15_radial_47_946" cx="0" cy="0" r="1" gradientUnits="userSpaceOnUse" gradientTransform="translate(433 138.506) rotate(-90) scale(400.452 734.106)">
<stop stop-color="#0CAD3D"/>
<stop offset="1" stop-color="#3B6949"/>
</radialGradient>
<radialGradient id="paint16_radial_47_946" cx="0" cy="0" r="1" gradientUnits="userSpaceOnUse" gradientTransform="translate(682.249 606.426) rotate(88.5569) scale(97.3763 97.1076)">
<stop stop-color="white"/>
<stop offset="1" stop-color="#D3D3D3"/>
</radialGradient>
<radialGradient id="paint17_radial_47_946" cx="0" cy="0" r="1" gradientUnits="userSpaceOnUse" gradientTransform="translate(682.062 633.515) rotate(88.5569) scale(63.396 63.2211)">
<stop stop-color="white"/>
<stop offset="1" stop-color="#D3D3D3"/>
</radialGradient>
<radialGradient id="paint18_radial_47_946" cx="0" cy="0" r="1" gradientUnits="userSpaceOnUse" gradientTransform="translate(681.456 660.593) rotate(88.5569) scale(28.9086 28.8288)">
<stop stop-color="white"/>
<stop offset="1" stop-color="#D3D3D3"/>
</radialGradient>
<linearGradient id="paint19_linear_47_946" x1="701.714" y1="673.405" x2="667.894" y2="749.779" gradientUnits="userSpaceOnUse">
<stop stop-color="white"/>
<stop offset="1" stop-color="#707D87"/>
</linearGradient>
<clipPath id="clip0_47_946">
<rect width="866" height="832" fill="white"/>
</clipPath>
</defs>
</svg>
