<svg width="18" height="22" viewBox="0 0 18 22" fill="none" xmlns="http://www.w3.org/2000/svg">
<path opacity="0.4" d="M6.1875 21C2.82812 21 0.09375 18.2656 0.09375 14.8672C0.09375 13.2266 0.71875 11.6641 1.85156 10.5312L10.0938 2.28906C10.9531 1.46875 12.1641 1 13.3359 1C16.2656 1 17.9062 3.38281 17.9062 5.53125C17.9062 6.74219 17.3984 7.91406 16.5391 8.77344L9 16.3125C8.41406 16.8984 7.63281 17.1719 6.89062 17.1719C4.50781 17.1719 3.88281 15.0625 3.88281 14.2031C3.88281 13.4609 4.19531 12.6797 4.78125 12.0938L10.3281 6.54688C10.5625 6.3125 10.8359 6.23438 11.1094 6.23438C11.6953 6.23438 12.2031 6.70312 12.2031 7.32812C12.2031 7.60156 12.0859 7.875 11.8906 8.10938L6.30469 13.6562C6.14844 13.8125 6.07031 14.0078 6.07031 14.2031C6.07031 14.6719 6.46094 15.0234 6.89062 15.0234C7.08594 15.0234 7.28125 14.9453 7.4375 14.7891L15.0156 7.21094C15.4453 6.74219 15.6797 6.15625 15.6797 5.53125C15.6797 4.4375 14.8594 3.1875 13.3359 3.1875C12.7109 3.1875 12.0859 3.42188 11.6562 3.85156L3.41406 12.0938C2.67188 12.8359 2.28125 13.8125 2.28125 14.8672C2.28125 16.7422 3.64844 18.7734 6.1875 18.7734C7.24219 18.7734 8.25781 18.4219 9 17.6797L15.2109 11.4297C15.4453 11.2344 15.7188 11.1172 15.9922 11.1172C16.5781 11.1172 17.0859 11.5859 17.0859 12.2109C17.0859 12.4844 16.9688 12.7578 16.7734 12.9922L10.5234 19.2031C9.39062 20.375 7.82812 21 6.1875 21Z" fill="black"/>
</svg>
