<svg width="29" height="29" viewBox="0 0 29 29" fill="none" xmlns="http://www.w3.org/2000/svg">
<path fill-rule="evenodd" clip-rule="evenodd" d="M4.49106 10.0789C3.91413 9.74353 3.71833 9.00393 4.05373 8.42699C5.23991 6.38661 6.99765 4.73828 9.10995 3.68548C11.2222 2.63268 13.5967 2.22152 15.9399 2.50276C16.6025 2.58228 17.0752 3.18388 16.9957 3.84647C16.9161 4.50905 16.3146 4.98173 15.6519 4.90221C13.7773 4.67722 11.8778 5.00615 10.188 5.84838C8.49813 6.69063 7.09194 8.00929 6.143 9.6416C5.80759 10.2185 5.068 10.4143 4.49106 10.0789Z" fill="#D6BEA7"/>
<path fill-rule="evenodd" clip-rule="evenodd" d="M14.5 21.75C18.5041 21.75 21.75 18.5041 21.75 14.5C21.75 10.4959 18.5041 7.25 14.5 7.25C10.4959 7.25 7.25 10.4959 7.25 14.5C7.25 18.5041 10.4959 21.75 14.5 21.75Z" fill="#D6BEA7"/>
<path fill-rule="evenodd" clip-rule="evenodd" d="M25.2021 12.2223C25.8662 12.1563 26.458 12.6411 26.524 13.3052C26.7573 15.6537 26.2979 18.0193 25.2022 20.1096C24.1066 22.2 22.4227 23.9238 20.3586 25.0681C19.775 25.3917 19.0395 25.1808 18.7159 24.5972C18.3924 24.0134 18.6031 23.2781 19.1869 22.9545C20.8382 22.039 22.1852 20.66 23.0618 18.9877C23.9383 17.3154 24.3059 15.423 24.1192 13.5442C24.0532 12.8801 24.538 12.2883 25.2021 12.2223Z" fill="#D6BEA7"/>
<path d="M7.66466 21.3353C9.54557 23.2163 12.0088 24.16 14.474 24.1667C15.0955 24.1682 15.6665 24.5661 15.8039 25.1722C15.9627 25.8732 15.4844 26.5647 14.7659 26.5804C11.5855 26.65 8.38284 25.4712 5.95581 23.0443C3.50571 20.5941 2.32774 17.3536 2.42192 14.1434C2.44299 13.4251 3.13811 12.9519 3.83783 13.116C4.44284 13.258 4.83644 13.8319 4.83346 14.4534C4.82152 16.9428 5.76525 19.4359 7.66466 21.3353Z" fill="#D6BEA7"/>
<path d="M24.1063 8.5188C26.1083 8.5188 27.7313 6.89583 27.7313 4.8938C27.7313 2.89177 26.1083 1.2688 24.1063 1.2688C22.1042 1.2688 20.4813 2.89177 20.4813 4.8938C20.4813 6.89583 22.1042 8.5188 24.1063 8.5188Z" fill="#0CAD3D"/>
</svg>
